<svg id="Layer_1" data-name="Layer 1" xmlns="http://www.w3.org/2000/svg" viewBox="0 0 81.98 62.61"><defs><style>.cls-1{fill:#fff;}.cls-2{fill:none;}</style></defs><title>logo-white</title><path class="cls-1" d="M63.26,20.13l2.29-1.33-2.29-1.33,2-1.75-2.51-.85,1.62-2.1-2.64-.35L62.9,10l-2.65.17.69-2.56-2.57.69.18-2.65L56.17,6.86l-.35-2.63-2.1,1.62-.86-2.52-1.75,2L49.79,3l-1.33,2.3-1.75-2-.85,2.52L43.75,4.23,43.4,6.86,41,5.69l.18,2.65-2.57-.69.69,2.56L36.67,10l1.18,2.38-2.63.35,1.61,2.1-2.51.85,2,1.75L34,18.8l2.29,1.33-2,1.75,2.51.85-1.61,2.1,2.63.35-1.18,2.38,2.65-.17L38.63,30l2.57-.69L41,31.91l2.38-1.17.35,2.63,2.11-1.62.85,2.52,1.75-2,1.33,2.3,1.32-2.3,1.75,2,.86-2.52,2.1,1.62.35-2.63,2.38,1.17-.18-2.65,2.57.69-.69-2.56,2.65.17-1.18-2.38,2.64-.35-1.62-2.1,2.51-.85Z" transform="translate(-3.93 -3.03)"/><path class="cls-1" d="M62.48,18.8A12.7,12.7,0,1,1,49.79,6.1,12.7,12.7,0,0,1,62.48,18.8Z" transform="translate(-3.93 -3.03)"/><path class="cls-1" d="M38.43,18.8A11.36,11.36,0,1,1,49.79,30.16,11.36,11.36,0,0,1,38.43,18.8Z" transform="translate(-3.93 -3.03)"/><path class="cls-2" d="M42,39.7a4.27,4.27,0,0,1-3.68-2,4.23,4.23,0,0,1-3.67,2,4.17,4.17,0,0,1-.44,0l-.23,0c-4.56-1-5.77-7.47-6.22-9.91l-.09-.46A7.8,7.8,0,0,0,27,27.8l-.16-.31c-.17-.33-.35-.66-.53-1a11.55,11.55,0,0,1-1.77-5A7.3,7.3,0,0,1,28,14.78a8.49,8.49,0,0,1,4.49-1.33,9.57,9.57,0,0,1,5.76,2.1A9.54,9.54,0,0,1,44,13.45a8.46,8.46,0,0,1,4.49,1.33A7.3,7.3,0,0,1,52,21.51a11.64,11.64,0,0,1-1.77,5c-.18.33-.36.65-.53,1l-.16.32a7.48,7.48,0,0,0-.64,1.46l-.09.46c-.45,2.44-1.66,8.92-6.22,9.91l-.09,0-.14,0A3.94,3.94,0,0,1,42,39.7Z" transform="translate(-3.93 -3.03)"/><path class="cls-1" d="M38.21,31.37c-1,0-1.65,1.41-1.65,3.8a1.9,1.9,0,0,1-2.11,2.14c-3.38-.73-4.23-7.4-4.5-8.57a10.85,10.85,0,0,0-1-2.33c-.82-1.62-1.94-3.2-2.05-5a4.94,4.94,0,0,1,2.39-4.56C34.05,13.87,38,18.52,38,18.52h.55s4-4.65,8.72-1.71a4.94,4.94,0,0,1,2.39,4.56c-.11,1.84-1.23,3.42-2.05,5a10.85,10.85,0,0,0-1,2.33c-.27,1.17-1.12,7.84-4.49,8.57A1.9,1.9,0,0,1,40,35.17c0-2.39-.66-3.8-1.65-3.8Z" transform="translate(-3.93 -3.03)"/><path class="cls-1" d="M43.77,45.08c3.33,0,4.85,2.82,4.85,5.51S47.1,56.1,43.77,56.1s-4.85-2.82-4.85-5.51S40.44,45.08,43.77,45.08Zm0,9.5c2.51,0,3-2.59,3-4s-.52-4-3-4-3,2.59-3,4S41.25,54.58,43.77,54.58Z" transform="translate(-3.93 -3.03)"/><path class="cls-1" d="M59.48,52.54a4.35,4.35,0,0,1-4.69,3.58c-2.94,0-4.67-2.22-4.67-5.23,0-3.23,1.55-5.81,5-5.81,3,0,4.49,2.4,4.49,6.09H52c0,2.17,1,3.43,3,3.43a2.66,2.66,0,0,0,2.7-2.06ZM57.8,49.77c-.1-1.61-.78-3.11-2.91-3.11A3.07,3.07,0,0,0,52,49.77Z" transform="translate(-3.93 -3.03)"/><path class="cls-1" d="M67.64,48.35c0-.65-.26-1.75-2.48-1.75-.54,0-2.07.18-2.07,1.48,0,.85.54,1.05,1.89,1.39l1.76.44c2.18.54,2.93,1.34,2.93,2.76,0,2.15-1.77,3.45-4.13,3.45-4.13,0-4.43-2.4-4.49-3.65h1.7c.06.81.3,2.13,2.77,2.13,1.26,0,2.4-.5,2.4-1.66,0-.83-.58-1.11-2.08-1.49l-2-.5c-1.46-.36-2.42-1.1-2.42-2.54,0-2.29,1.9-3.33,4-3.33,3.73,0,4,2.76,4,3.27Z" transform="translate(-3.93 -3.03)"/><path class="cls-1" d="M73.84,46.84v6.78c0,.82.7.82,1.06.82h.62v1.38c-.64.06-1.14.14-1.32.14-1.73,0-2.11-1-2.11-2.24V46.84H70.67V45.38h1.42V42.47h1.75v2.91h1.68v1.46Z" transform="translate(-3.93 -3.03)"/><path class="cls-1" d="M85.7,52.54a4.52,4.52,0,0,1-1.86,2.86,4.46,4.46,0,0,1-2.83.72c-2.93,0-4.67-2.22-4.67-5.23,0-3.23,1.56-5.81,5-5.81,3,0,4.49,2.4,4.49,6.09H78.22c0,2.17,1,3.43,3,3.43a2.64,2.64,0,0,0,2.69-2.06ZM84,49.77c-.1-1.61-.78-3.11-2.91-3.11a3.06,3.06,0,0,0-2.89,3.11Z" transform="translate(-3.93 -3.03)"/><path class="cls-1" d="M9.74,48.56a3,3,0,0,0-2-.82,2.67,2.67,0,0,0-2,.92,3.26,3.26,0,0,0-.84,2.26,4.52,4.52,0,0,0,.8,2.59A6.8,6.8,0,0,0,8,55.57a9.66,9.66,0,0,0,4.78,1.37,7.58,7.58,0,0,0,1.92-.26A6.25,6.25,0,0,0,16.4,56l.37-.21a.45.45,0,0,0,.14-.1,4.66,4.66,0,0,1,.43-.3,4.27,4.27,0,0,0,.89-.85,3.78,3.78,0,0,0,1-2.5,3.3,3.3,0,0,0-.65-1.9,10.31,10.31,0,0,0-2.16-2.08l-1-.77c-.51-.4-1-.81-1.41-1.22a7.42,7.42,0,0,1-1-1.12,3.92,3.92,0,0,1-.57-1.05,3.71,3.71,0,0,1-.16-1,3.18,3.18,0,0,1,.73-2.08,4.55,4.55,0,0,1,2-1.43,8.13,8.13,0,0,1,3-.51A8.31,8.31,0,0,1,20,39.1a6.26,6.26,0,0,1,1.6.62,3.35,3.35,0,0,1,1.07.91,2,2,0,0,1,.37,1.16,1.26,1.26,0,0,1-.43,1,1.6,1.6,0,0,1-1.11.39,1.94,1.94,0,0,1-1-.25c-.11-.06-.16-.12-.16-.18s0-.09.12-.17l0,0,0,0s0,0,0,0l.07,0a1.83,1.83,0,0,0,1.06.34.92.92,0,0,0,.65-.24.82.82,0,0,0,.24-.61,1.9,1.9,0,0,0-.69-1.36,5,5,0,0,0-1.8-1.07,6.68,6.68,0,0,0-2.27-.41,7.67,7.67,0,0,0-1.9.23,5.27,5.27,0,0,0-1.51.63,3.13,3.13,0,0,0-1,1,2.41,2.41,0,0,0-.35,1.29A3,3,0,0,0,13.62,44a9.08,9.08,0,0,0,1.76,1.84l2.26,1.86a7.27,7.27,0,0,1,1.71,1.89,3.91,3.91,0,0,1,.55,2,4.49,4.49,0,0,1-1,2.85A7.12,7.12,0,0,1,16,56.55a9.48,9.48,0,0,1-3.86.78,10.1,10.1,0,0,1-3-.45,8.28,8.28,0,0,1-2.49-1.23A5.59,5.59,0,0,1,5,53.78a4.87,4.87,0,0,1-.57-2.33,4.46,4.46,0,0,1,.45-2A3.65,3.65,0,0,1,6.14,48a3.28,3.28,0,0,1,1.77-.51,3.19,3.19,0,0,1,1.29.25c.41.17.61.36.61.57A1.65,1.65,0,0,1,9.74,48.56Z" transform="translate(-3.93 -3.03)"/><path class="cls-1" d="M26,52l0,0-.06,0a.24.24,0,0,0-.12,0q-.66-.26-.66-.57t.27-.21c.29,0,.55.22.8.66A3.36,3.36,0,0,0,27.3,52a2.81,2.81,0,0,0,2.17-1c.08-.09.14-.13.18-.13s.11,0,.11.12-.11.23-.35.44a3.12,3.12,0,0,1-2.11.8,4.47,4.47,0,0,1-1-.15c0,.32,0,.54,0,.64a3.11,3.11,0,0,1-.46,1.62,3.92,3.92,0,0,1-1.19,1.3,2.61,2.61,0,0,1-1.47.51,1.78,1.78,0,0,1-1.36-.6,2.13,2.13,0,0,1-.54-1.49A4,4,0,0,1,21.93,52a5.28,5.28,0,0,1,1.58-1.68,3.27,3.27,0,0,1,1.91-.66,2.57,2.57,0,0,1,.65.08c.2.07.3.14.3.23s-.06.17-.19.3a.39.39,0,0,1-.23.13l0,0-.09,0a1.56,1.56,0,0,0-.77-.26,2.72,2.72,0,0,0-2.06,1,3.43,3.43,0,0,0-.9,2.33,2,2,0,0,0,.47,1.35,1.49,1.49,0,0,0,1.19.54,2.15,2.15,0,0,0,1.63-.79,2.76,2.76,0,0,0,.68-1.84A3,3,0,0,0,26,52Z" transform="translate(-3.93 -3.03)"/><path class="cls-1" d="M29.94,50.6a6.23,6.23,0,0,0-.1,1.23,6,6,0,0,0,.42,2.51,1.33,1.33,0,0,0,1.2.89q1.4,0,3.8-2.49a21.48,21.48,0,0,0,1.48-1.6c.13-.15.22-.23.29-.23s.12,0,.12.13a2.38,2.38,0,0,1-.5.62,25.31,25.31,0,0,1-3.34,3.26,4,4,0,0,1-2.32,1A1.59,1.59,0,0,1,29.55,55,4.61,4.61,0,0,1,29,52.65a14.91,14.91,0,0,1,1.15-5.4,20.49,20.49,0,0,1,3-5.61,1.8,1.8,0,0,1,1.23-.82.55.55,0,0,1,.43.2,1,1,0,0,1,.16.58q0,1.5-2.34,5.25c-.34.56-.77,1.19-1.27,1.87l-.68.9-.54.68Zm.08-.54a14,14,0,0,0,1.13-1.45q.47-.66,1.14-1.68t1-1.59c.26-.51.48-.94.63-1.28a6.6,6.6,0,0,0,.73-2.24.63.63,0,0,0-.11-.38.35.35,0,0,0-.3-.14c-.3,0-.72.39-1.25,1.18a18,18,0,0,0-1.55,3c-.13.34-.33.88-.59,1.62-.17.49-.33,1-.47,1.52A12.75,12.75,0,0,0,30,50.06Z" transform="translate(-3.93 -3.03)"/><path class="cls-1" d="M3.93,62.73a2.1,2.1,0,0,1,.46-1.45,1.5,1.5,0,0,1,1.19-.52,1.63,1.63,0,0,1,.87.24,1.63,1.63,0,0,1,.58.69,2.29,2.29,0,0,1,.2,1,2.34,2.34,0,0,1-.21,1,1.48,1.48,0,0,1-.6.68,1.66,1.66,0,0,1-.84.23,1.51,1.51,0,0,1-.87-.25,1.54,1.54,0,0,1-.58-.7A2.1,2.1,0,0,1,3.93,62.73Zm.47,0a1.58,1.58,0,0,0,.33,1.06,1.12,1.12,0,0,0,1.7,0,1.67,1.67,0,0,0,.33-1.11,2.16,2.16,0,0,0-.14-.8,1.21,1.21,0,0,0-.42-.52,1,1,0,0,0-.62-.19,1.11,1.11,0,0,0-.83.36A1.7,1.7,0,0,0,4.4,62.74Z" transform="translate(-3.93 -3.03)"/><path class="cls-1" d="M9.39,64.55v-.34a.78.78,0,0,1-.7.4.93.93,0,0,1-.55-.18,1.1,1.1,0,0,1-.39-.5,1.83,1.83,0,0,1-.14-.73,2.11,2.11,0,0,1,.13-.73A1.09,1.09,0,0,1,8.11,62a1,1,0,0,1,.56-.17.8.8,0,0,1,.41.1.9.9,0,0,1,.28.27V60.82h.43v3.73ZM8.05,63.2a1.3,1.3,0,0,0,.2.78.61.61,0,0,0,.48.25A.58.58,0,0,0,9.2,64a1.22,1.22,0,0,0,.2-.75,1.34,1.34,0,0,0-.2-.81.57.57,0,0,0-.49-.26.56.56,0,0,0-.47.25A1.24,1.24,0,0,0,8.05,63.2Z" transform="translate(-3.93 -3.03)"/><path class="cls-1" d="M10.3,63.2a1.44,1.44,0,0,1,.38-1.11,1.13,1.13,0,0,1,.79-.3,1.07,1.07,0,0,1,.84.36,1.45,1.45,0,0,1,.33,1,1.85,1.85,0,0,1-.15.82,1,1,0,0,1-.42.46,1.13,1.13,0,0,1-.6.17,1.07,1.07,0,0,1-.85-.37A1.49,1.49,0,0,1,10.3,63.2Zm.43,0a1.2,1.2,0,0,0,.21.77.64.64,0,0,0,.53.26A.65.65,0,0,0,12,64a1.22,1.22,0,0,0,.21-.79,1.21,1.21,0,0,0-.21-.76.64.64,0,0,0-.52-.25.66.66,0,0,0-.53.25A1.21,1.21,0,0,0,10.73,63.2Z" transform="translate(-3.93 -3.03)"/><path class="cls-1" d="M13.14,64.55v-2.7h.38v.38a.89.89,0,0,1,.8-.44.91.91,0,0,1,.41.09.61.61,0,0,1,.29.23,1,1,0,0,1,.13.33,4.24,4.24,0,0,1,0,.45v1.66h-.42V62.91a1.4,1.4,0,0,0-.05-.42.36.36,0,0,0-.18-.22.48.48,0,0,0-.29-.09.68.68,0,0,0-.47.19,1,1,0,0,0-.2.7v1.48Z" transform="translate(-3.93 -3.03)"/><path class="cls-1" d="M16.75,64.14l.06.4a1.27,1.27,0,0,1-.32,0,.64.64,0,0,1-.36-.08.49.49,0,0,1-.18-.2,2,2,0,0,1,0-.54V62.2h-.31v-.35h.31v-.67l.42-.27v.94h.43v.35h-.43v1.58a.62.62,0,0,0,0,.25.16.16,0,0,0,.07.09.26.26,0,0,0,.14,0Z" transform="translate(-3.93 -3.03)"/><path class="cls-1" d="M17,63.2a1.48,1.48,0,0,1,.38-1.11,1.13,1.13,0,0,1,.79-.3,1.1,1.1,0,0,1,.85.36,1.49,1.49,0,0,1,.32,1,2,2,0,0,1-.14.82,1.1,1.1,0,0,1-.42.46,1.19,1.19,0,0,1-.61.17,1.07,1.07,0,0,1-.85-.37A1.49,1.49,0,0,1,17,63.2Zm.43,0a1.2,1.2,0,0,0,.21.77.64.64,0,0,0,.53.26.67.67,0,0,0,.53-.26,1.22,1.22,0,0,0,.21-.79,1.21,1.21,0,0,0-.21-.76.69.69,0,0,0-1.06,0A1.21,1.21,0,0,0,17.44,63.2Z" transform="translate(-3.93 -3.03)"/><path class="cls-1" d="M19.84,64.55V60.82h.43v3.73Z" transform="translate(-3.93 -3.03)"/><path class="cls-1" d="M20.77,63.2a1.44,1.44,0,0,1,.38-1.11,1.13,1.13,0,0,1,.79-.3,1.07,1.07,0,0,1,.84.36,1.45,1.45,0,0,1,.33,1A2,2,0,0,1,23,64a1.06,1.06,0,0,1-.43.46,1.13,1.13,0,0,1-.6.17,1.07,1.07,0,0,1-.85-.37A1.49,1.49,0,0,1,20.77,63.2Zm.43,0a1.2,1.2,0,0,0,.21.77.64.64,0,0,0,.53.26.67.67,0,0,0,.53-.26,1.29,1.29,0,0,0,.2-.79,1.21,1.21,0,0,0-.21-.76.64.64,0,0,0-.52-.25.66.66,0,0,0-.53.25A1.21,1.21,0,0,0,21.2,63.2Z" transform="translate(-3.93 -3.03)"/><path class="cls-1" d="M23.53,64.77l.41.07a.48.48,0,0,0,.15.3.69.69,0,0,0,.43.12.71.71,0,0,0,.45-.12.67.67,0,0,0,.22-.36,3.54,3.54,0,0,0,0-.59.84.84,0,0,1-.69.36.92.92,0,0,1-.8-.41,1.58,1.58,0,0,1-.28-1,1.83,1.83,0,0,1,.13-.71A1,1,0,0,1,24,62a1,1,0,0,1,.58-.18.88.88,0,0,1,.73.38v-.32h.39v2.33a2.31,2.31,0,0,1-.12.89.89.89,0,0,1-.37.42,1.26,1.26,0,0,1-.64.15,1.09,1.09,0,0,1-.72-.22A.75.75,0,0,1,23.53,64.77Zm.35-1.62a1.22,1.22,0,0,0,.2.77.58.58,0,0,0,.49.25.62.62,0,0,0,.49-.24,1.24,1.24,0,0,0,.2-.77,1.11,1.11,0,0,0-.21-.74.6.6,0,0,0-1,0A1.19,1.19,0,0,0,23.88,63.15Z" transform="translate(-3.93 -3.03)"/><path class="cls-1" d="M26.42,61.51l.32-.71h.55l-.52.71Zm0,3v-2.7h.43v2.7Z" transform="translate(-3.93 -3.03)"/><path class="cls-1" d="M29.27,64.21a1.58,1.58,0,0,1-.45.31,1.27,1.27,0,0,1-.47.09.86.86,0,0,1-.64-.22.77.77,0,0,1-.22-.56.86.86,0,0,1,.08-.36.8.8,0,0,1,.22-.26.89.89,0,0,1,.31-.15,3,3,0,0,1,.38-.07,2.86,2.86,0,0,0,.75-.16.66.66,0,0,0,0-.11.55.55,0,0,0-.12-.4.7.7,0,0,0-.49-.15.68.68,0,0,0-.44.11.75.75,0,0,0-.21.4l-.41-.06a1.05,1.05,0,0,1,.18-.47,1,1,0,0,1,.37-.27,1.7,1.7,0,0,1,.57-.09,1.34,1.34,0,0,1,.53.08.65.65,0,0,1,.29.2.79.79,0,0,1,.13.31,2.26,2.26,0,0,1,0,.43v.61a6.2,6.2,0,0,0,0,.8,1,1,0,0,0,.11.33h-.45A1.13,1.13,0,0,1,29.27,64.21Zm0-1a2.78,2.78,0,0,1-.69.18,1.09,1.09,0,0,0-.37.09.39.39,0,0,0-.17.14.43.43,0,0,0-.06.22.44.44,0,0,0,.13.31.54.54,0,0,0,.38.12.83.83,0,0,0,.44-.12.63.63,0,0,0,.27-.31,1.14,1.14,0,0,0,.07-.46Z" transform="translate(-3.93 -3.03)"/><path class="cls-1" d="M33.33,63.09v-.44H34.8V64a2.5,2.5,0,0,1-.7.43,1.87,1.87,0,0,1-.73.15,1.84,1.84,0,0,1-.93-.24,1.46,1.46,0,0,1-.63-.67,2.33,2.33,0,0,1-.21-1,2.44,2.44,0,0,1,.21-1,1.41,1.41,0,0,1,.61-.7,1.71,1.71,0,0,1,.91-.23,1.65,1.65,0,0,1,.68.13,1.16,1.16,0,0,1,.47.36,1.64,1.64,0,0,1,.27.61l-.42.13a1.35,1.35,0,0,0-.19-.45.78.78,0,0,0-.33-.26,1.06,1.06,0,0,0-.48-.1,1.27,1.27,0,0,0-.54.1,1.14,1.14,0,0,0-.37.27,1.36,1.36,0,0,0-.21.37,2,2,0,0,0-.14.75,2,2,0,0,0,.16.83,1.07,1.07,0,0,0,.46.5,1.37,1.37,0,0,0,.65.17,1.48,1.48,0,0,0,.58-.13,1.52,1.52,0,0,0,.43-.26v-.69Z" transform="translate(-3.93 -3.03)"/><path class="cls-1" d="M37.13,63.68l.44.06a1.21,1.21,0,0,1-.38.64,1.13,1.13,0,0,1-.72.23,1.07,1.07,0,0,1-.87-.37,1.45,1.45,0,0,1-.32-1,1.56,1.56,0,0,1,.32-1.06,1.07,1.07,0,0,1,.85-.37,1,1,0,0,1,.82.37,1.53,1.53,0,0,1,.31,1v.12H35.72A1.07,1.07,0,0,0,36,64a.68.68,0,0,0,.52.23.6.6,0,0,0,.4-.13A.87.87,0,0,0,37.13,63.68Zm-1.39-.74h1.4a1,1,0,0,0-.16-.51.64.64,0,0,0-.53-.27.65.65,0,0,0-.49.21A.89.89,0,0,0,35.74,62.94Z" transform="translate(-3.93 -3.03)"/><path class="cls-1" d="M38.1,64.55v-2.7h.39v.38a.87.87,0,0,1,.79-.44,1,1,0,0,1,.42.09.58.58,0,0,1,.28.23.7.7,0,0,1,.13.33,2.34,2.34,0,0,1,0,.45v1.66h-.43V62.91a1.13,1.13,0,0,0-.05-.42.38.38,0,0,0-.17-.22.51.51,0,0,0-.3-.09.66.66,0,0,0-.46.19.92.92,0,0,0-.2.7v1.48Z" transform="translate(-3.93 -3.03)"/><path class="cls-1" d="M42.5,63.68l.44.06a1.21,1.21,0,0,1-.38.64,1.13,1.13,0,0,1-.72.23,1.07,1.07,0,0,1-.87-.37,1.45,1.45,0,0,1-.32-1A1.56,1.56,0,0,1,41,62.16a1.07,1.07,0,0,1,.85-.37,1,1,0,0,1,.82.37,1.53,1.53,0,0,1,.31,1v.12H41.09a1.07,1.07,0,0,0,.23.69.68.68,0,0,0,.52.23.6.6,0,0,0,.4-.13A.87.87,0,0,0,42.5,63.68Zm-1.39-.74h1.4a.93.93,0,0,0-.16-.51.64.64,0,0,0-.53-.27.65.65,0,0,0-.49.21A.89.89,0,0,0,41.11,62.94Z" transform="translate(-3.93 -3.03)"/><path class="cls-1" d="M43.47,64.55v-2.7h.38v.41a1.2,1.2,0,0,1,.27-.38.44.44,0,0,1,.27-.09.84.84,0,0,1,.44.14l-.15.43a.52.52,0,0,0-.31-.1.4.4,0,0,0-.25.09.57.57,0,0,0-.16.25,2.19,2.19,0,0,0-.07.53v1.42Z" transform="translate(-3.93 -3.03)"/><path class="cls-1" d="M46.72,64.21a1.49,1.49,0,0,1-.46.31,1.19,1.19,0,0,1-.47.09.85.85,0,0,1-.63-.22.73.73,0,0,1-.22-.56.86.86,0,0,1,.08-.36.8.8,0,0,1,.22-.26.81.81,0,0,1,.31-.15,3.1,3.1,0,0,1,.37-.07,2.86,2.86,0,0,0,.76-.16v-.11a.55.55,0,0,0-.12-.4.69.69,0,0,0-.48-.15.66.66,0,0,0-.44.11.64.64,0,0,0-.21.4L45,62.62a1.19,1.19,0,0,1,.19-.47.89.89,0,0,1,.37-.27,1.66,1.66,0,0,1,.57-.09,1.29,1.29,0,0,1,.52.08.69.69,0,0,1,.3.2,1,1,0,0,1,.13.31,3.66,3.66,0,0,1,0,.43v.61a6.2,6.2,0,0,0,0,.8,1,1,0,0,0,.1.33H46.8A1.13,1.13,0,0,1,46.72,64.21Zm0-1a2.78,2.78,0,0,1-.69.18,1,1,0,0,0-.37.09.34.34,0,0,0-.17.14.43.43,0,0,0-.06.22.4.4,0,0,0,.13.31.54.54,0,0,0,.38.12.8.8,0,0,0,.43-.12.65.65,0,0,0,.28-.31,1.14,1.14,0,0,0,.07-.46Z" transform="translate(-3.93 -3.03)"/><path class="cls-1" d="M47.76,64.55V60.82h.42v3.73Z" transform="translate(-3.93 -3.03)"/><path class="cls-1" d="M50.16,65.59l0-.43a1.2,1.2,0,0,0,.24,0,.45.45,0,0,0,.22,0,.4.4,0,0,0,.14-.15,1.57,1.57,0,0,0,.13-.34l0-.11-1-2.7h.46l.52,1.56a5.79,5.79,0,0,1,.18.63,6.32,6.32,0,0,1,.18-.62l.53-1.57h.43l-1,2.74a4.22,4.22,0,0,1-.24.61.86.86,0,0,1-.25.34.6.6,0,0,1-.35.1A1,1,0,0,1,50.16,65.59Z" transform="translate(-3.93 -3.03)"/><path class="cls-1" d="M54,64.55V60.82h2.5v.44h-2V62.4h1.91v.44H54.46v1.27h2.12v.44Z" transform="translate(-3.93 -3.03)"/><path class="cls-1" d="M57,63.74l.42-.07a.69.69,0,0,0,.19.42.7.7,0,0,0,.46.14.6.6,0,0,0,.43-.13.39.39,0,0,0,.14-.3.29.29,0,0,0-.12-.24,2.27,2.27,0,0,0-.44-.16,2.81,2.81,0,0,1-.64-.22.62.62,0,0,1-.28-.25.75.75,0,0,1-.09-.37.62.62,0,0,1,.08-.33.71.71,0,0,1,.2-.25.86.86,0,0,1,.27-.14,1.5,1.5,0,0,1,.37-.05,1.38,1.38,0,0,1,.52.09.66.66,0,0,1,.33.25.9.9,0,0,1,.14.41l-.41.07a.48.48,0,0,0-.17-.33.54.54,0,0,0-.38-.12.68.68,0,0,0-.42.11.31.31,0,0,0-.12.24.3.3,0,0,0,.05.16.4.4,0,0,0,.16.12l.38.12.63.21a.81.81,0,0,1,.28.24.81.81,0,0,1,.1.39.73.73,0,0,1-.13.43.84.84,0,0,1-.35.32,1.32,1.32,0,0,1-.53.11,1.12,1.12,0,0,1-.75-.22A1.06,1.06,0,0,1,57,63.74Z" transform="translate(-3.93 -3.03)"/><path class="cls-1" d="M59.57,65.58V61.85H60v.35a.92.92,0,0,1,.31-.31.77.77,0,0,1,.42-.1.91.91,0,0,1,.56.18,1,1,0,0,1,.37.5,2,2,0,0,1,.12.71,2,2,0,0,1-.13.74,1.15,1.15,0,0,1-.4.51,1,1,0,0,1-.56.18.72.72,0,0,1-.38-.1.78.78,0,0,1-.27-.24v1.31ZM60,63.21a1.23,1.23,0,0,0,.19.77.58.58,0,0,0,1,0,1.3,1.3,0,0,0,.2-.8,1.26,1.26,0,0,0-.2-.77.57.57,0,0,0-.47-.26.62.62,0,0,0-.48.28A1.35,1.35,0,0,0,60,63.21Z" transform="translate(-3.93 -3.03)"/><path class="cls-1" d="M64,63.68l.44.06a1.21,1.21,0,0,1-.38.64,1.13,1.13,0,0,1-.72.23,1.07,1.07,0,0,1-.87-.37,1.45,1.45,0,0,1-.32-1,1.56,1.56,0,0,1,.32-1.06,1.07,1.07,0,0,1,.85-.37,1,1,0,0,1,.82.37,1.53,1.53,0,0,1,.31,1v.12H62.55a1.14,1.14,0,0,0,.24.69.68.68,0,0,0,.52.23.6.6,0,0,0,.4-.13A.87.87,0,0,0,64,63.68Zm-1.39-.74H64a1,1,0,0,0-.16-.51.67.67,0,0,0-1-.06A.89.89,0,0,0,62.58,62.94Z" transform="translate(-3.93 -3.03)"/><path class="cls-1" d="M66.58,63.56l.41.06a1.17,1.17,0,0,1-.35.73,1,1,0,0,1-.69.26,1.05,1.05,0,0,1-.83-.36,1.61,1.61,0,0,1-.31-1,2,2,0,0,1,.14-.77,1,1,0,0,1,.41-.49,1.11,1.11,0,0,1,.59-.16,1,1,0,0,1,.67.22,1,1,0,0,1,.33.63l-.41.07a.76.76,0,0,0-.21-.41.52.52,0,0,0-.36-.14.65.65,0,0,0-.52.25,1.7,1.7,0,0,0,0,1.58.63.63,0,0,0,.51.24.56.56,0,0,0,.41-.16A.81.81,0,0,0,66.58,63.56Z" transform="translate(-3.93 -3.03)"/><path class="cls-1" d="M67.36,61.35v-.53h.42v.53Zm0,3.2v-2.7h.42v2.7Z" transform="translate(-3.93 -3.03)"/><path class="cls-1" d="M70.06,64.21a1.35,1.35,0,0,1-.45.31,1.23,1.23,0,0,1-.47.09.83.83,0,0,1-.63-.22.83.83,0,0,1-.14-.92.7.7,0,0,1,.22-.26.85.85,0,0,1,.3-.15,3.36,3.36,0,0,1,.38-.07,3,3,0,0,0,.76-.16v-.11a.55.55,0,0,0-.12-.4.69.69,0,0,0-.48-.15.71.71,0,0,0-.45.11.75.75,0,0,0-.21.4l-.41-.06a1.36,1.36,0,0,1,.18-.47,1,1,0,0,1,.38-.27,1.62,1.62,0,0,1,.57-.09,1.29,1.29,0,0,1,.52.08.65.65,0,0,1,.29.2.8.8,0,0,1,.14.31,3.66,3.66,0,0,1,0,.43v.61c0,.42,0,.69,0,.8a1.28,1.28,0,0,0,.11.33h-.44A1.13,1.13,0,0,1,70.06,64.21Zm0-1a3,3,0,0,1-.7.18,1,1,0,0,0-.36.09.34.34,0,0,0-.17.14.43.43,0,0,0-.06.22.4.4,0,0,0,.13.31.51.51,0,0,0,.37.12.81.81,0,0,0,.44-.12.65.65,0,0,0,.28-.31,1.35,1.35,0,0,0,.07-.46Z" transform="translate(-3.93 -3.03)"/><path class="cls-1" d="M71.11,64.55V60.82h.42v3.73Z" transform="translate(-3.93 -3.03)"/><path class="cls-1" d="M72.19,61.35v-.53h.42v.53Zm0,3.2v-2.7h.42v2.7Z" transform="translate(-3.93 -3.03)"/><path class="cls-1" d="M74.88,64.55v-.34a.77.77,0,0,1-.7.4,1,1,0,0,1-.55-.18,1.25,1.25,0,0,1-.39-.5,1.83,1.83,0,0,1-.13-.73,2.11,2.11,0,0,1,.12-.73,1.11,1.11,0,0,1,.38-.51,1,1,0,0,1,.56-.17.77.77,0,0,1,.4.1.94.94,0,0,1,.29.27V60.82h.42v3.73ZM73.54,63.2a1.23,1.23,0,0,0,.21.78.58.58,0,0,0,.47.25A.6.6,0,0,0,74.7,64a1.22,1.22,0,0,0,.19-.75,1.34,1.34,0,0,0-.2-.81.57.57,0,0,0-.48-.26.58.58,0,0,0-.48.25A1.31,1.31,0,0,0,73.54,63.2Z" transform="translate(-3.93 -3.03)"/><path class="cls-1" d="M77.58,64.21a1.49,1.49,0,0,1-.46.31,1.18,1.18,0,0,1-.46.09.86.86,0,0,1-.64-.22.73.73,0,0,1-.22-.56.74.74,0,0,1,.09-.36.62.62,0,0,1,.22-.26.85.85,0,0,1,.3-.15,3,3,0,0,1,.38-.07,2.86,2.86,0,0,0,.75-.16.66.66,0,0,0,0-.11.55.55,0,0,0-.12-.4.7.7,0,0,0-.49-.15.68.68,0,0,0-.44.11.64.64,0,0,0-.21.4l-.42-.06a1.19,1.19,0,0,1,.19-.47.93.93,0,0,1,.38-.27,1.6,1.6,0,0,1,.56-.09,1.34,1.34,0,0,1,.53.08.65.65,0,0,1,.29.2.79.79,0,0,1,.13.31,2.26,2.26,0,0,1,0,.43v.61a6.2,6.2,0,0,0,0,.8,1,1,0,0,0,.11.33h-.45A1.13,1.13,0,0,1,77.58,64.21Zm0-1a2.78,2.78,0,0,1-.69.18,1.09,1.09,0,0,0-.37.09.39.39,0,0,0-.17.14.43.43,0,0,0-.06.22.44.44,0,0,0,.13.31.54.54,0,0,0,.38.12.77.77,0,0,0,.43-.12.67.67,0,0,0,.29-.31,1.38,1.38,0,0,0,.06-.46Z" transform="translate(-3.93 -3.03)"/><path class="cls-1" d="M80.25,64.55v-.34a.76.76,0,0,1-.69.4,1,1,0,0,1-.56-.18,1.15,1.15,0,0,1-.38-.5,1.67,1.67,0,0,1-.14-.73,2.11,2.11,0,0,1,.12-.73A1.11,1.11,0,0,1,79,62a1,1,0,0,1,.56-.17.77.77,0,0,1,.4.1.94.94,0,0,1,.29.27V60.82h.42v3.73ZM78.91,63.2a1.23,1.23,0,0,0,.21.78.58.58,0,0,0,.47.25.6.6,0,0,0,.48-.24,1.22,1.22,0,0,0,.19-.75,1.27,1.27,0,0,0-.2-.81.57.57,0,0,0-.48-.26.58.58,0,0,0-.48.25A1.31,1.31,0,0,0,78.91,63.2Z" transform="translate(-3.93 -3.03)"/><path class="cls-1" d="M83,63.68l.44.06a1.16,1.16,0,0,1-.39.64,1.21,1.21,0,0,1-1.58-.14,1.46,1.46,0,0,1-.33-1,1.56,1.56,0,0,1,.33-1.06,1.07,1.07,0,0,1,.84-.37,1,1,0,0,1,.82.37,1.48,1.48,0,0,1,.32,1v.12H81.61a1.14,1.14,0,0,0,.24.69.68.68,0,0,0,.52.23.6.6,0,0,0,.4-.13A.87.87,0,0,0,83,63.68Zm-1.39-.74H83a.94.94,0,0,0-.15-.51.65.65,0,0,0-.53-.27.64.64,0,0,0-.49.21A.84.84,0,0,0,81.64,62.94Z" transform="translate(-3.93 -3.03)"/><path class="cls-1" d="M83.83,63.74l.42-.07a.58.58,0,0,0,.65.56.6.6,0,0,0,.43-.13.37.37,0,0,0,.15-.3.29.29,0,0,0-.13-.24,2.08,2.08,0,0,0-.43-.16,2.94,2.94,0,0,1-.65-.22.68.68,0,0,1-.28-.25.75.75,0,0,1-.09-.37.73.73,0,0,1,.08-.33.64.64,0,0,1,.21-.25.68.68,0,0,1,.27-.14,1.36,1.36,0,0,1,.36-.05,1.38,1.38,0,0,1,.52.09.66.66,0,0,1,.33.25,1,1,0,0,1,.15.41l-.42.07a.52.52,0,0,0-.16-.33.56.56,0,0,0-.38-.12.64.64,0,0,0-.42.11.3.3,0,0,0-.13.24.3.3,0,0,0,0,.16.37.37,0,0,0,.17.12l.37.12.63.21a.73.73,0,0,1,.28.24.71.71,0,0,1,.1.39.8.8,0,0,1-.12.43.81.81,0,0,1-.36.32,1.25,1.25,0,0,1-.53.11,1.09,1.09,0,0,1-.74-.22A1.07,1.07,0,0,1,83.83,63.74Z" transform="translate(-3.93 -3.03)"/></svg>