<svg xmlns="http://www.w3.org/2000/svg" width="120.739" height="98.249" viewBox="0 0 120.739 98.249">
  <path id="braces" d="M117.661,59.411h-9.088c-.116,0-.231,0-.347-.007a44.213,44.213,0,0,1,3.554-9.172,1.98,1.98,0,0,0-.721-2.576,1.7,1.7,0,0,0-2.39.778,46.608,46.608,0,0,0-4.027,10.729c-.036.164-.073.334-.11.506-.237,1.107-.531,2.486-1.156,2.91a2.868,2.868,0,0,1-3.022.082c-1.92-1.406-1.92-5.759-1.92-7.851a22.5,22.5,0,0,0-.654-5.617,13.835,13.835,0,0,0-2.062-4.724A6.867,6.867,0,0,0,94.261,43a7.517,7.517,0,0,0-9.137,0,6.823,6.823,0,0,0-1.455,1.466,13.827,13.827,0,0,0-2.063,4.724,22.541,22.541,0,0,0-.653,5.617c0,2.092,0,6.445-1.919,7.851a2.871,2.871,0,0,1-3.024-.082c-.625-.424-.919-1.8-1.156-2.911-.037-.173-.073-.342-.11-.505-1.185-5.319-3.406-9.586-5.756-14.1-.5-.968-1.024-1.969-1.53-2.973a52.5,52.5,0,0,1-4.4-11.492H78.123a4.312,4.312,0,0,0,4.136,3.747H97.126a4.312,4.312,0,0,0,4.136-3.747h15.06a50.668,50.668,0,0,1-3.744,10.171,1.977,1.977,0,0,0,.755,2.565,1.7,1.7,0,0,0,2.378-.814,51.032,51.032,0,0,0,4.53-13.414,32.843,32.843,0,0,0-1.027-15.6c-1.827-5.673-5.1-9.748-9.466-11.782C106.133.028,101.451.1,96.9,1.9c-.131.052-.262.1-.4.152a19.549,19.549,0,0,1-13.631,0c-.132-.05-.263-.1-.4-.153C77.935.1,73.253.029,69.636,1.715c-4.221,1.967-7.415,5.844-9.273,11.223C58.5,7.559,55.309,3.682,51.089,1.715,47.473.029,42.79.1,38.242,1.9c-.13.052-.262.1-.394.152a19.543,19.543,0,0,1-13.631,0c-.133-.05-.264-.1-.4-.153C19.275.1,14.592.03,10.975,1.716,6.609,3.748,3.335,7.823,1.509,13.5A31.607,31.607,0,0,0,.077,20.954C-.493,29.07,2.141,36.843,5.694,43.9c.519,1.029,1.046,2.042,1.555,3.021q.321.617.637,1.227a1.7,1.7,0,0,0,2.4.735,1.982,1.982,0,0,0,.682-2.588q-.318-.617-.641-1.235c-.5-.968-1.024-1.969-1.531-2.975A52.545,52.545,0,0,1,4.4,30.593H19.463A4.311,4.311,0,0,0,23.6,34.34H38.465A4.312,4.312,0,0,0,42.6,30.593H57.665a52.544,52.544,0,0,1-4.4,11.492c-.506,1-1.026,2.006-1.53,2.973-2.351,4.518-4.572,8.785-5.757,14.1-.037.165-.073.334-.11.507-.237,1.107-.531,2.485-1.156,2.909a2.865,2.865,0,0,1-3.023.082c-1.919-1.406-1.919-5.759-1.919-7.85a22.5,22.5,0,0,0-.654-5.618,13.838,13.838,0,0,0-2.062-4.723A6.849,6.849,0,0,0,35.6,43a7.518,7.518,0,0,0-9.137,0,6.869,6.869,0,0,0-1.455,1.467,13.839,13.839,0,0,0-2.063,4.723,22.549,22.549,0,0,0-.653,5.618c0,2.091,0,6.444-1.92,7.85a2.865,2.865,0,0,1-3.023-.082c-.625-.424-.919-1.8-1.156-2.91-.037-.173-.073-.342-.11-.505a37.308,37.308,0,0,0-1.373-4.675,1.728,1.728,0,0,0-2.287-1.077,1.954,1.954,0,0,0-1,2.466A33.846,33.846,0,0,1,12.494,59.4c-.164,0-.327.013-.491.013H3.065A3.066,3.066,0,0,0,.124,62.582V95.575a3.066,3.066,0,0,0,2.941,3.172h114.6a3.066,3.066,0,0,0,2.941-3.172V62.582a3.066,3.066,0,0,0-2.941-3.171ZM86.463,46.8a3.269,3.269,0,0,1,.686-.677,4.188,4.188,0,0,1,5.088,0,3.3,3.3,0,0,1,.687.676,10.025,10.025,0,0,1,1.452,3.4,17.568,17.568,0,0,1,.508,3.659,66.18,66.18,0,0,0-9.452-5.034A8.352,8.352,0,0,1,86.463,46.8ZM78.057,26.788H62.382c0-.014,0-.028,0-.042a30.032,30.032,0,0,1-.168-4.087H78.057ZM97.8,29.809a.7.7,0,0,1-.674.726H82.26a.7.7,0,0,1-.674-.726v-1.1s0-.01,0-.015V20.756s0-.01,0-.015V19.81a.7.7,0,0,1,.674-.726H97.126a.7.7,0,0,1,.674.726Zm19.211-3.078c0,.02,0,.039-.007.058H101.4V22.659h15.781a30.247,30.247,0,0,1-.167,4.071ZM71.036,5.207c2.794-1.3,6.521-1.2,10.222.265q.232.092.467.18a22.851,22.851,0,0,0,15.935,0c.157-.059.312-.118.465-.179C101.83,4,105.555,3.9,108.35,5.207c4.844,2.256,7.579,7.731,8.494,13.646h-15.61a4.3,4.3,0,0,0-4.107-3.575H82.259a4.3,4.3,0,0,0-4.107,3.575H62.543c.915-5.916,3.651-11.39,8.493-13.646Zm-58.661,0C15.169,3.905,18.9,4,22.6,5.472q.232.092.467.18A22.851,22.851,0,0,0,39,5.652c.157-.059.312-.118.465-.179C43.169,4,46.9,3.905,49.689,5.207c4.844,2.256,7.579,7.731,8.494,13.646H42.573a4.3,4.3,0,0,0-4.107-3.575H23.6a4.3,4.3,0,0,0-4.107,3.575H3.882C4.8,12.938,7.532,7.463,12.375,5.207ZM3.716,26.746a30.031,30.031,0,0,1-.169-4.087H19.4v4.129H3.721c0-.014,0-.028,0-.042Zm35.423,3.063a.7.7,0,0,1-.673.726H23.6a.7.7,0,0,1-.673-.726v-1.1s0-.01,0-.015V20.756s0-.01,0-.015V19.81a.7.7,0,0,1,.673-.726H38.465a.7.7,0,0,1,.673.726Zm3.6-7.15H58.517a30.269,30.269,0,0,1-.167,4.072c0,.019,0,.038-.007.057H42.737ZM60.362,34.2a61.218,61.218,0,0,0,3.9,9.52c-1.387-.091-2.779-.142-4.177-.142-1.208,0-2.413.04-3.614.11A61.065,61.065,0,0,0,60.362,34.2Zm-34.013,16A10.028,10.028,0,0,1,27.8,46.8a3.322,3.322,0,0,1,.687-.677,4.186,4.186,0,0,1,5.088,0,3.264,3.264,0,0,1,.686.675,8.316,8.316,0,0,1,1.009,1.961,66.57,66.57,0,0,0-9.424,5,17.569,17.569,0,0,1,.5-3.559Zm90.724,44.742H3.653V63.217H12c.5,0,.99-.02,1.482-.055A5.55,5.55,0,0,0,15.469,65.8a6.289,6.289,0,0,0,3.511,1.059,5.713,5.713,0,0,0,3.375-1.051c2.337-1.712,3.1-4.771,3.345-7.489a63.807,63.807,0,0,1,10.421-5.83,21.372,21.372,0,0,1,.121,2.322c0,2.956,0,8.459,3.465,11a6.149,6.149,0,0,0,6.887-.008c1.858-1.261,2.354-3.582,2.716-5.277q.051-.241.1-.471a50.291,50.291,0,0,1,5.016-12.386c1.877-.184,3.765-.283,5.661-.283a60.461,60.461,0,0,1,6.23.325,50.156,50.156,0,0,1,4.995,12.345c.034.152.067.309.1.47.362,1.7.858,4.017,2.716,5.277a6.151,6.151,0,0,0,6.888.009c3.465-2.538,3.465-8.042,3.465-11a21.422,21.422,0,0,1,.112-2.24,62.972,62.972,0,0,1,10.44,5.86c.258,2.69,1.029,5.689,3.334,7.378a5.714,5.714,0,0,0,3.375,1.05,6.286,6.286,0,0,0,3.512-1.059,5.548,5.548,0,0,0,1.98-2.629c.444.029.889.046,1.337.046h8.5Zm0,0" transform="translate(0.001 -0.498)" fill="#259b9d"/>
</svg>
