<svg xmlns="http://www.w3.org/2000/svg" width="100.892" height="98.249" viewBox="0 0 100.892 98.249">
  <g id="check-up" transform="translate(0)">
    <path id="Path_3" data-name="Path 3" d="M96,400h3.255v3.169H96Zm0,0" transform="translate(-76.473 -320.767)" fill="#259b9d"/>
    <path id="Path_4" data-name="Path 4" d="M64,400h3.255v3.169H64Zm0,0" transform="translate(-50.982 -320.767)" fill="#259b9d"/>
    <path id="Path_5" data-name="Path 5" d="M32,400h3.255v3.169H32Zm0,0" transform="translate(-25.491 -320.767)" fill="#259b9d"/>
    <path id="Path_6" data-name="Path 6" d="M92.755,22.185H84.176a17.288,17.288,0,0,0,.443-3.808v-.661A17.982,17.982,0,0,0,66.424,0a18.576,18.576,0,0,0-9.36,2.524l-1.41.826a10.531,10.531,0,0,1-10.415,0l-1.41-.826A18.581,18.581,0,0,0,34.468,0,17.982,17.982,0,0,0,16.273,17.717v.661a17.289,17.289,0,0,0,.443,3.808H8.136A8.041,8.041,0,0,0,0,30.109V80.818a8.041,8.041,0,0,0,8.136,7.923H29.291V95.08H22.782v3.169H78.11V95.08H71.6V88.741H92.755a8.041,8.041,0,0,0,8.136-7.923V30.109a8.041,8.041,0,0,0-8.136-7.923ZM19.527,17.717A14.764,14.764,0,0,1,34.468,3.169a15.241,15.241,0,0,1,7.685,2.073l1.411.826a13.921,13.921,0,0,0,13.765,0l1.411-.826a15.231,15.231,0,0,1,7.683-2.073,14.764,14.764,0,0,1,14.94,14.547v.661a14.286,14.286,0,0,1-1.579,6.505,118.88,118.88,0,0,0-12.32,40.155l-.331,2.735a2.282,2.282,0,0,1-4.458.277L58.089,50.183a7.931,7.931,0,0,0-15.286,0L38.215,68.05a2.282,2.282,0,0,1-4.458-.277l-.331-2.735a118.882,118.882,0,0,0-12.32-40.155,14.286,14.286,0,0,1-1.579-6.505ZM8.136,25.355h9.641c.138.316.259.638.417.946a115.79,115.79,0,0,1,12,39.108l.33,2.735a5.552,5.552,0,0,0,10.846.675l4.588-17.868a4.657,4.657,0,0,1,8.975,0l4.588,17.868a5.552,5.552,0,0,0,10.846-.677l.33-2.735A115.811,115.811,0,0,1,82.7,26.3c.158-.308.279-.631.417-.946h9.641a4.825,4.825,0,0,1,4.882,4.754V76.062H28.157l-4.882-3.169H3.255V30.109a4.825,4.825,0,0,1,4.882-4.754ZM92.755,85.572H35.8v3.169H68.346V95.08h-35.8V85.572H8.136a4.825,4.825,0,0,1-4.882-4.754V76.064H22.289l4.882,3.169H97.637v1.585a4.825,4.825,0,0,1-4.882,4.754Zm0,0" transform="translate(0 0)" fill="#259b9d"/>
    <path id="Path_7" data-name="Path 7" d="M214.477,53.266l-2.682-1.794L195.112,75.1l-6.761-7.9-2.5,2.029,9.512,11.114Zm0,0" transform="translate(-148.045 -41.277)" fill="#259b9d"/>
  </g>
</svg>
