<svg id="Layer_1" data-name="Layer 1" xmlns="http://www.w3.org/2000/svg" xmlns:xlink="http://www.w3.org/1999/xlink" viewBox="0 0 82 62.61"><defs><style>.cls-1{fill:#ffc000;fill-rule:evenodd;}.cls-2{fill:#fff;}.cls-3{fill:url(#linear-gradient);}.cls-4{fill:#208a8e;}.cls-5,.cls-6{fill:#666;}.cls-5{stroke:#666;stroke-width:1px;}</style><linearGradient id="linear-gradient" x1="-645.13" y1="-305.56" x2="-645.13" y2="-328.28" gradientTransform="translate(-596.05 -297.24) rotate(180)" gradientUnits="userSpaceOnUse"><stop offset="0" stop-color="#ffdd7c"/><stop offset="0.66" stop-color="#ffc000"/></linearGradient></defs><title>logo</title><path class="cls-1" d="M62.55,21l2.3-1.33-2.3-1.32,2-1.75L62,15.74l1.62-2.1L61,13.29l1.17-2.38-2.65.18.69-2.57-2.56.69.17-2.65L55.46,7.74,55.11,5.1,53,6.72l-.86-2.51-1.74,2L49.08,3.91,47.75,6.2,46,4.21l-.85,2.51L43.05,5.1,42.7,7.74,40.32,6.56l.17,2.65-2.56-.69.69,2.57L36,10.91l1.17,2.38-2.63.35,1.62,2.1-2.52.86,2,1.75-2.3,1.32L35.61,21l-2,1.75,2.52.85-1.62,2.11,2.63.35L36,28.44l2.65-.18-.69,2.56,2.56-.68-.17,2.64,2.38-1.17L43,34.24l2.11-1.61L46,35.14l1.75-2,1.33,2.29,1.33-2.29,1.74,2L53,32.63l2.1,1.61.35-2.63,2.38,1.17-.17-2.64,2.56.68-.69-2.56,2.65.18L61,26.06l2.63-.35L62,23.6l2.52-.85Z" transform="translate(-3.21 -3.91)"/><path class="cls-2" d="M61.77,19.67A12.7,12.7,0,1,1,49.08,7,12.69,12.69,0,0,1,61.77,19.67Z" transform="translate(-3.21 -3.91)"/><path class="cls-3" d="M37.72,19.67A11.36,11.36,0,1,1,49.08,31,11.36,11.36,0,0,1,37.72,19.67Z" transform="translate(-3.21 -3.91)"/><path class="cls-2" d="M41.26,40.57a4.26,4.26,0,0,1-3.68-2,4.26,4.26,0,0,1-3.68,2,3.84,3.84,0,0,1-.43,0l-.24,0c-4.55-1-5.76-7.47-6.22-9.91a3.9,3.9,0,0,0-.09-.45,7.59,7.59,0,0,0-.64-1.48l-.16-.31c-.17-.33-.35-.65-.53-1a11.86,11.86,0,0,1-1.77-5,7.34,7.34,0,0,1,3.51-6.74,8.48,8.48,0,0,1,4.5-1.32,9.57,9.57,0,0,1,5.75,2.09,9.57,9.57,0,0,1,5.75-2.09,8.48,8.48,0,0,1,4.5,1.32,7.33,7.33,0,0,1,3.51,6.73,11.55,11.55,0,0,1-1.78,5c-.18.33-.36.66-.52,1l-.17.32a7,7,0,0,0-.63,1.46,4.43,4.43,0,0,0-.09.47c-.46,2.44-1.67,8.91-6.22,9.9l-.09,0-.15,0A3.84,3.84,0,0,1,41.26,40.57Z" transform="translate(-3.21 -3.91)"/><path class="cls-4" d="M37.51,32.25c-1,0-1.65,1.41-1.65,3.79a1.91,1.91,0,0,1-2.12,2.15c-3.37-.74-4.23-7.41-4.49-8.57a10.64,10.64,0,0,0-1-2.33c-.82-1.62-1.94-3.21-2.05-5a4.93,4.93,0,0,1,2.39-4.57c4.75-2.94,8.72,1.72,8.72,1.72h.54s4-4.66,8.72-1.72A4.93,4.93,0,0,1,49,22.25c-.11,1.83-1.23,3.42-2.05,5a10.64,10.64,0,0,0-1,2.33c-.26,1.16-1.12,7.83-4.49,8.57A1.91,1.91,0,0,1,39.31,36c0-2.38-.66-3.79-1.66-3.79Z" transform="translate(-3.21 -3.91)"/><path class="cls-4" d="M43.06,46c3.34,0,4.85,2.81,4.85,5.5S46.4,57,43.06,57s-4.85-2.81-4.85-5.51S39.73,46,43.06,46Zm0,9.5c2.52,0,3-2.6,3-4s-.52-4-3-4-3,2.6-3,4S40.55,55.46,43.06,55.46Z" transform="translate(-3.21 -3.91)"/><path class="cls-4" d="M58.77,53.42A4.35,4.35,0,0,1,54.08,57c-2.93,0-4.67-2.21-4.67-5.23,0-3.23,1.56-5.8,5-5.8,3,0,4.49,2.39,4.49,6.08H51.28c0,2.18,1,3.44,3,3.44A2.64,2.64,0,0,0,57,53.42Zm-1.68-2.77c-.1-1.62-.78-3.12-2.91-3.12a3.07,3.07,0,0,0-2.9,3.12Z" transform="translate(-3.21 -3.91)"/><path class="cls-4" d="M66.93,49.23c0-.66-.26-1.76-2.47-1.76-.54,0-2.08.18-2.08,1.48,0,.86.54,1.06,1.9,1.4l1.75.44c2.18.53,2.94,1.33,2.94,2.75C69,55.7,67.19,57,64.84,57c-4.14,0-4.43-2.39-4.49-3.65H62c.06.82.3,2.14,2.78,2.14,1.25,0,2.39-.5,2.39-1.66,0-.84-.58-1.12-2.08-1.5l-2-.5c-1.46-.36-2.42-1.09-2.42-2.53,0-2.3,1.9-3.33,4-3.33,3.73,0,4,2.75,4,3.27Z" transform="translate(-3.21 -3.91)"/><path class="cls-4" d="M73.14,47.71V54.5c0,.82.7.82,1.06.82h.61v1.37c-.63.06-1.13.14-1.31.14-1.74,0-2.12-1-2.12-2.23V47.71H70V46.26h1.41V43.34h1.76v2.92h1.67v1.45Z" transform="translate(-3.21 -3.91)"/><path class="cls-4" d="M85,53.42A4.34,4.34,0,0,1,80.3,57c-2.93,0-4.67-2.21-4.67-5.23,0-3.23,1.56-5.8,5-5.8,3,0,4.49,2.39,4.49,6.08H77.51c0,2.18,1,3.44,3,3.44a2.66,2.66,0,0,0,2.7-2.06Zm-1.67-2.77c-.1-1.62-.78-3.12-2.92-3.12a3.07,3.07,0,0,0-2.89,3.12Z" transform="translate(-3.21 -3.91)"/><path class="cls-5" d="M9,49.43a3.09,3.09,0,0,0-2-.82,2.61,2.61,0,0,0-2,.93,3.21,3.21,0,0,0-.85,2.26A4.53,4.53,0,0,0,5,54.38a6.66,6.66,0,0,0,2.28,2.06,9.66,9.66,0,0,0,4.78,1.37A7.56,7.56,0,0,0,14,57.56a6.8,6.8,0,0,0,1.73-.65l.36-.2a.72.72,0,0,0,.15-.11s.17-.12.43-.3a4.44,4.44,0,0,0,.89-.84,3.79,3.79,0,0,0,1-2.51,3.28,3.28,0,0,0-.64-1.89A10.16,10.16,0,0,0,15.75,49l-1-.76Q14,47.6,13.36,47a7.42,7.42,0,0,1-1-1.11,4.16,4.16,0,0,1-.56-1,3.48,3.48,0,0,1-.16-1,3.25,3.25,0,0,1,.72-2.09,4.69,4.69,0,0,1,2-1.43,8.18,8.18,0,0,1,3-.51,8.37,8.37,0,0,1,1.94.23,6.82,6.82,0,0,1,1.6.62,3.33,3.33,0,0,1,1.06.92,2,2,0,0,1,.38,1.15,1.28,1.28,0,0,1-.43,1,1.57,1.57,0,0,1-1.12.4,1.91,1.91,0,0,1-1-.26c-.11-.05-.17-.11-.17-.17s.05-.1.13-.18l0,0,0,0,0,0,.06.06a1.92,1.92,0,0,0,1.07.33.89.89,0,0,0,.64-.24.79.79,0,0,0,.25-.6,1.9,1.9,0,0,0-.69-1.36,5.19,5.19,0,0,0-1.8-1.08,6.76,6.76,0,0,0-2.28-.4,7.33,7.33,0,0,0-1.9.23,4.84,4.84,0,0,0-1.5.63,3.14,3.14,0,0,0-1,1,2.55,2.55,0,0,0-.35,1.29,3,3,0,0,0,.55,1.66,9.1,9.1,0,0,0,1.76,1.84l2.26,1.86a7.29,7.29,0,0,1,1.71,1.9,3.88,3.88,0,0,1,.55,2,4.58,4.58,0,0,1-1,2.85,7.07,7.07,0,0,1-2.86,2.11,9.48,9.48,0,0,1-3.86.78,10.42,10.42,0,0,1-3-.44,8.13,8.13,0,0,1-2.48-1.24,5.3,5.3,0,0,1-1.63-1.87,4.74,4.74,0,0,1-.58-2.33,4.36,4.36,0,0,1,.46-2,3.55,3.55,0,0,1,1.26-1.44,3.32,3.32,0,0,1,1.78-.51,3.27,3.27,0,0,1,1.29.26c.4.17.6.35.6.56A1.73,1.73,0,0,1,9,49.43Z" transform="translate(-3.21 -3.91)"/><path class="cls-5" d="M25.26,52.85l0,0,0,0-.12,0c-.44-.17-.66-.36-.66-.56s.09-.22.27-.22.55.22.79.66a3.24,3.24,0,0,0,1.14.22,2.83,2.83,0,0,0,2.17-1c.08-.09.14-.14.19-.14s.11,0,.11.12-.12.24-.35.45a3.19,3.19,0,0,1-2.12.79,4.55,4.55,0,0,1-1-.15c0,.32,0,.54,0,.65a3.19,3.19,0,0,1-.45,1.61A4,4,0,0,1,24,56.51,2.57,2.57,0,0,1,22.5,57a1.77,1.77,0,0,1-1.36-.61,2.16,2.16,0,0,1-.53-1.49,3.89,3.89,0,0,1,.62-2.07,5,5,0,0,1,1.57-1.68,3.3,3.3,0,0,1,1.91-.66,2.3,2.3,0,0,1,.66.08c.2.06.29.14.29.23a.5.5,0,0,1-.18.29.46.46,0,0,1-.23.14l-.05,0a.19.19,0,0,0-.09,0,1.51,1.51,0,0,0-.76-.25,2.69,2.69,0,0,0-2.06,1,3.45,3.45,0,0,0-.9,2.33,2,2,0,0,0,.47,1.36A1.47,1.47,0,0,0,23,56.2a2.16,2.16,0,0,0,1.63-.8,2.72,2.72,0,0,0,.69-1.84A3,3,0,0,0,25.26,52.85Z" transform="translate(-3.21 -3.91)"/><path class="cls-5" d="M29.23,51.48a7.08,7.08,0,0,0-.09,1.22,6.06,6.06,0,0,0,.41,2.52,1.32,1.32,0,0,0,1.2.88q1.39,0,3.81-2.49c.6-.6,1.09-1.13,1.48-1.6.12-.15.22-.23.28-.23s.12,0,.12.14a2.81,2.81,0,0,1-.5.62,25.15,25.15,0,0,1-3.33,3.25,4,4,0,0,1-2.33,1,1.59,1.59,0,0,1-1.44-.85,4.59,4.59,0,0,1-.51-2.39,14.88,14.88,0,0,1,1.14-5.4,20.83,20.83,0,0,1,3-5.6c.46-.55.87-.83,1.24-.83a.54.54,0,0,1,.43.21,1,1,0,0,1,.16.57q0,1.52-2.34,5.25c-.35.57-.78,1.19-1.28,1.87s-.65.89-.67.9l-.54.69Zm.08-.54a14.23,14.23,0,0,0,1.13-1.46q.48-.66,1.14-1.68c.43-.67.74-1.2,1-1.58s.48-.94.63-1.28a6.35,6.35,0,0,0,.73-2.25.66.66,0,0,0-.11-.38.33.33,0,0,0-.3-.13c-.3,0-.72.39-1.25,1.17a18.15,18.15,0,0,0-1.54,3c-.14.34-.34.88-.59,1.61-.18.49-.33,1-.48,1.52S29.4,50.41,29.31,50.94Z" transform="translate(-3.21 -3.91)"/><path class="cls-6" d="M3.22,63.61a2.13,2.13,0,0,1,.46-1.46,1.56,1.56,0,0,1,1.2-.52,1.54,1.54,0,0,1,.86.25,1.49,1.49,0,0,1,.58.68,2.33,2.33,0,0,1,.21,1,2.38,2.38,0,0,1-.21,1,1.53,1.53,0,0,1-.61.67,1.64,1.64,0,0,1-1.71,0,1.63,1.63,0,0,1-.58-.69A2.32,2.32,0,0,1,3.22,63.61Zm.47,0A1.56,1.56,0,0,0,4,64.68a1.07,1.07,0,0,0,.84.38,1.06,1.06,0,0,0,.85-.39,1.67,1.67,0,0,0,.33-1.11,1.92,1.92,0,0,0-.14-.79,1.11,1.11,0,0,0-.42-.53,1.08,1.08,0,0,0-.61-.19,1.14,1.14,0,0,0-.84.36A1.7,1.7,0,0,0,3.69,63.61Z" transform="translate(-3.21 -3.91)"/><path class="cls-6" d="M8.69,65.42v-.34a.77.77,0,0,1-.7.4.91.91,0,0,1-.55-.18,1.07,1.07,0,0,1-.39-.49,1.75,1.75,0,0,1-.14-.74A2.11,2.11,0,0,1,7,63.34a1,1,0,0,1,.38-.5A.91.91,0,0,1,8,62.66a.88.88,0,0,1,.4.1.94.94,0,0,1,.29.27V61.7h.42v3.72ZM7.35,64.07a1.21,1.21,0,0,0,.2.78.59.59,0,0,0,.47.26.61.61,0,0,0,.48-.25,1.18,1.18,0,0,0,.19-.75,1.27,1.27,0,0,0-.2-.81A.59.59,0,0,0,8,63a.58.58,0,0,0-.48.25A1.36,1.36,0,0,0,7.35,64.07Z" transform="translate(-3.21 -3.91)"/><path class="cls-6" d="M9.59,64.07A1.44,1.44,0,0,1,10,63a1.09,1.09,0,0,1,.78-.3,1.07,1.07,0,0,1,.85.37,1.49,1.49,0,0,1,.33,1,1.85,1.85,0,0,1-.15.82,1.13,1.13,0,0,1-.42.47,1.18,1.18,0,0,1-.61.16,1.1,1.1,0,0,1-.85-.36A1.55,1.55,0,0,1,9.59,64.07Zm.43,0a1.27,1.27,0,0,0,.21.78.67.67,0,0,0,1.06,0,1.26,1.26,0,0,0,.21-.79,1.17,1.17,0,0,0-.21-.76.67.67,0,0,0-1.06,0A1.26,1.26,0,0,0,10,64.07Z" transform="translate(-3.21 -3.91)"/><path class="cls-6" d="M12.43,65.42v-2.7h.38v.39a.89.89,0,0,1,.8-.45,1,1,0,0,1,.42.09.65.65,0,0,1,.28.23.86.86,0,0,1,.13.34,2.15,2.15,0,0,1,0,.44v1.66H14V63.78a1.13,1.13,0,0,0,0-.42.46.46,0,0,0-.17-.22.58.58,0,0,0-.3-.08.69.69,0,0,0-.47.18,1,1,0,0,0-.19.71v1.47Z" transform="translate(-3.21 -3.91)"/><path class="cls-6" d="M16,65l.07.41a2.11,2.11,0,0,1-.33,0,.67.67,0,0,1-.35-.08.37.37,0,0,1-.18-.21,1.53,1.53,0,0,1-.06-.54V63.08h-.31v-.36h.31v-.67l.43-.27v.94H16v.36h-.42v1.58a1.14,1.14,0,0,0,0,.25s0,.06.07.09a.33.33,0,0,0,.15,0Z" transform="translate(-3.21 -3.91)"/><path class="cls-6" d="M16.3,64.07A1.44,1.44,0,0,1,16.69,63a1.11,1.11,0,0,1,.79-.3,1.07,1.07,0,0,1,.84.37,1.44,1.44,0,0,1,.33,1,1.85,1.85,0,0,1-.15.82,1,1,0,0,1-.42.47,1.15,1.15,0,0,1-.6.16,1.1,1.1,0,0,1-.86-.36A1.55,1.55,0,0,1,16.3,64.07Zm.44,0a1.21,1.21,0,0,0,.21.78.66.66,0,0,0,1.05,0,1.26,1.26,0,0,0,.21-.79A1.17,1.17,0,0,0,18,63.3a.66.66,0,0,0-1.05,0A1.2,1.2,0,0,0,16.74,64.07Z" transform="translate(-3.21 -3.91)"/><path class="cls-6" d="M19.13,65.42V61.7h.43v3.72Z" transform="translate(-3.21 -3.91)"/><path class="cls-6" d="M20.06,64.07A1.44,1.44,0,0,1,20.45,63a1.09,1.09,0,0,1,.78-.3,1.07,1.07,0,0,1,.85.37,1.43,1.43,0,0,1,.32,1,1.86,1.86,0,0,1-.14.82,1.13,1.13,0,0,1-.42.47,1.18,1.18,0,0,1-.61.16,1.1,1.1,0,0,1-.85-.36A1.55,1.55,0,0,1,20.06,64.07Zm.43,0a1.27,1.27,0,0,0,.21.78.68.68,0,0,0,.53.26.67.67,0,0,0,.53-.26,1.26,1.26,0,0,0,.21-.79,1.17,1.17,0,0,0-.21-.76.67.67,0,0,0-.53-.26.68.68,0,0,0-.53.26A1.26,1.26,0,0,0,20.49,64.07Z" transform="translate(-3.21 -3.91)"/><path class="cls-6" d="M22.83,65.65l.41.06a.39.39,0,0,0,.14.3.71.71,0,0,0,.43.13.76.76,0,0,0,.46-.13.59.59,0,0,0,.21-.36,2.37,2.37,0,0,0,0-.58.88.88,0,0,1-.7.35A.92.92,0,0,1,23,65a1.62,1.62,0,0,1-.28-1,1.88,1.88,0,0,1,.13-.72,1.13,1.13,0,0,1,.38-.5.92.92,0,0,1,.57-.18.89.89,0,0,1,.74.39v-.33H25v2.34a2.35,2.35,0,0,1-.12.89.94.94,0,0,1-.38.41,1.14,1.14,0,0,1-.63.16,1.17,1.17,0,0,1-.73-.22A.76.76,0,0,1,22.83,65.65ZM23.18,64a1.24,1.24,0,0,0,.19.78.62.62,0,0,0,.49.24.6.6,0,0,0,.49-.24,1.53,1.53,0,0,0,0-1.51.62.62,0,0,0-.5-.25.61.61,0,0,0-.48.25A1.16,1.16,0,0,0,23.18,64Z" transform="translate(-3.21 -3.91)"/><path class="cls-6" d="M25.72,62.39l.31-.71h.56l-.52.71Zm0,3v-2.7h.42v2.7Z" transform="translate(-3.21 -3.91)"/><path class="cls-6" d="M28.56,65.09a1.6,1.6,0,0,1-.45.3,1.23,1.23,0,0,1-.47.09.83.83,0,0,1-.63-.22.72.72,0,0,1-.22-.55.73.73,0,0,1,.08-.36.84.84,0,0,1,.22-.27,1.4,1.4,0,0,1,.3-.15l.38-.06a4.18,4.18,0,0,0,.76-.16v-.12a.5.5,0,0,0-.12-.39.65.65,0,0,0-.48-.16.56.56,0,0,0-.66.51l-.41-.06a1.14,1.14,0,0,1,.19-.46.75.75,0,0,1,.37-.27,1.42,1.42,0,0,1,.57-.1,1.54,1.54,0,0,1,.52.08.75.75,0,0,1,.29.21.68.68,0,0,1,.14.31,3.59,3.59,0,0,1,0,.42v.61c0,.43,0,.7,0,.81a1.21,1.21,0,0,0,.11.32h-.44A1,1,0,0,1,28.56,65.09Zm0-1a3.83,3.83,0,0,1-.69.17,2.13,2.13,0,0,0-.38.09.39.39,0,0,0-.16.15.43.43,0,0,0-.06.22.38.38,0,0,0,.13.3.51.51,0,0,0,.37.12.9.9,0,0,0,.44-.11.67.67,0,0,0,.28-.32,1.08,1.08,0,0,0,.07-.46Z" transform="translate(-3.21 -3.91)"/><path class="cls-6" d="M32.63,64v-.44h1.46V64.9a2.36,2.36,0,0,1-.69.44,1.91,1.91,0,0,1-.74.14,1.77,1.77,0,0,1-.92-.23,1.48,1.48,0,0,1-.63-.68,2.18,2.18,0,0,1-.22-1,2.34,2.34,0,0,1,.22-1,1.49,1.49,0,0,1,.6-.7,1.85,1.85,0,0,1,.92-.23,1.82,1.82,0,0,1,.67.13,1.19,1.19,0,0,1,.48.37,1.72,1.72,0,0,1,.26.61l-.41.12a1.59,1.59,0,0,0-.2-.45.77.77,0,0,0-.32-.26,1.29,1.29,0,0,0-.48-.1,1.27,1.27,0,0,0-.54.11,1,1,0,0,0-.37.27,1.07,1.07,0,0,0-.22.37,2,2,0,0,0-.13.75,1.86,1.86,0,0,0,.16.83,1.07,1.07,0,0,0,.46.5,1.32,1.32,0,0,0,.64.16,1.47,1.47,0,0,0,.58-.12,1.39,1.39,0,0,0,.43-.27V64Z" transform="translate(-3.21 -3.91)"/><path class="cls-6" d="M36.43,64.55l.43.06a1.06,1.06,0,0,1-1.1.87,1.12,1.12,0,0,1-.87-.36,1.83,1.83,0,0,1,0-2.08,1,1,0,0,1,.84-.38,1,1,0,0,1,.82.37,1.56,1.56,0,0,1,.32,1v.12H35a1,1,0,0,0,.23.68.68.68,0,0,0,.53.24.6.6,0,0,0,.39-.14A.85.85,0,0,0,36.43,64.55ZM35,63.81h1.4a1,1,0,0,0-.16-.51.65.65,0,0,0-.53-.26.67.67,0,0,0-.49.21A.91.91,0,0,0,35,63.81Z" transform="translate(-3.21 -3.91)"/><path class="cls-6" d="M37.4,65.42v-2.7h.38v.39a.88.88,0,0,1,.8-.45,1,1,0,0,1,.41.09.59.59,0,0,1,.28.23.87.87,0,0,1,.14.34,2.38,2.38,0,0,1,0,.44v1.66H39V63.78a1.4,1.4,0,0,0,0-.42.42.42,0,0,0-.18-.22.55.55,0,0,0-.29-.08.67.67,0,0,0-.47.18,1,1,0,0,0-.2.71v1.47Z" transform="translate(-3.21 -3.91)"/><path class="cls-6" d="M41.8,64.55l.43.06a1.06,1.06,0,0,1-1.1.87,1.12,1.12,0,0,1-.87-.36,1.83,1.83,0,0,1,0-2.08,1.06,1.06,0,0,1,.84-.38,1,1,0,0,1,.82.37,1.56,1.56,0,0,1,.32,1v.12H40.38a1.1,1.1,0,0,0,.23.68.68.68,0,0,0,.53.24.6.6,0,0,0,.39-.14A.85.85,0,0,0,41.8,64.55Zm-1.4-.74h1.4a1,1,0,0,0-.16-.51.64.64,0,0,0-.53-.26.67.67,0,0,0-.49.21A.91.91,0,0,0,40.4,63.81Z" transform="translate(-3.21 -3.91)"/><path class="cls-6" d="M42.76,65.42v-2.7h.39v.41a1.06,1.06,0,0,1,.26-.38.49.49,0,0,1,.28-.09.75.75,0,0,1,.43.15l-.14.42a.66.66,0,0,0-.31-.1.37.37,0,0,0-.25.09.46.46,0,0,0-.16.26,1.79,1.79,0,0,0-.07.53v1.41Z" transform="translate(-3.21 -3.91)"/><path class="cls-6" d="M46,65.09a1.76,1.76,0,0,1-.45.3,1.27,1.27,0,0,1-.47.09.86.86,0,0,1-.64-.22.76.76,0,0,1-.22-.55.74.74,0,0,1,.09-.36.71.71,0,0,1,.21-.27,1.77,1.77,0,0,1,.31-.15l.38-.06a4,4,0,0,0,.75-.16.68.68,0,0,0,0-.12.5.5,0,0,0-.12-.39.66.66,0,0,0-.49-.16.75.75,0,0,0-.44.11.79.79,0,0,0-.21.4l-.41-.06a1,1,0,0,1,.18-.46.78.78,0,0,1,.38-.27,1.42,1.42,0,0,1,.57-.1,1.43,1.43,0,0,1,.51.08.72.72,0,0,1,.3.21.68.68,0,0,1,.13.31,2.2,2.2,0,0,1,0,.42v.61a6.29,6.29,0,0,0,0,.81.94.94,0,0,0,.11.32h-.45A1,1,0,0,1,46,65.09Zm0-1a3.43,3.43,0,0,1-.69.17,2,2,0,0,0-.37.09.41.41,0,0,0-.17.15.43.43,0,0,0-.06.22.42.42,0,0,0,.13.3.54.54,0,0,0,.38.12.93.93,0,0,0,.44-.11.73.73,0,0,0,.28-.32,1.3,1.3,0,0,0,.06-.46Z" transform="translate(-3.21 -3.91)"/><path class="cls-6" d="M47.05,65.42V61.7h.43v3.72Z" transform="translate(-3.21 -3.91)"/><path class="cls-6" d="M49.46,66.46,49.41,66a.75.75,0,0,0,.24,0,.49.49,0,0,0,.23,0,.38.38,0,0,0,.14-.14s.07-.16.13-.34a.37.37,0,0,1,0-.11l-.95-2.71h.45l.52,1.57c.07.19.13.4.19.62a4.24,4.24,0,0,1,.17-.61l.53-1.58h.43l-1,2.75c-.11.29-.18.5-.24.61a.91.91,0,0,1-.26.33.61.61,0,0,1-.35.11A.74.74,0,0,1,49.46,66.46Z" transform="translate(-3.21 -3.91)"/><path class="cls-6" d="M53.3,65.42V61.7h2.49v.44h-2v1.14h1.91v.43H53.75V65h2.12v.44Z" transform="translate(-3.21 -3.91)"/><path class="cls-6" d="M56.28,64.62l.42-.08a.62.62,0,0,0,.2.42.76.76,0,0,0,.88,0,.4.4,0,0,0,.15-.3.3.3,0,0,0-.13-.25,1.73,1.73,0,0,0-.43-.15,4.63,4.63,0,0,1-.65-.22.62.62,0,0,1-.27-.26.65.65,0,0,1-.1-.36.73.73,0,0,1,.08-.33.67.67,0,0,1,.21-.26.68.68,0,0,1,.27-.13,1,1,0,0,1,.36-.06,1.38,1.38,0,0,1,.52.09.72.72,0,0,1,.33.25,1.09,1.09,0,0,1,.15.42l-.42.06a.52.52,0,0,0-.16-.33A.62.62,0,0,0,57.3,63a.63.63,0,0,0-.41.1.3.3,0,0,0-.13.25.25.25,0,0,0,.06.16.35.35,0,0,0,.16.12l.37.11A4.6,4.6,0,0,1,58,64a.6.6,0,0,1,.28.24.67.67,0,0,1,.1.39.8.8,0,0,1-.48.74,1.14,1.14,0,0,1-.53.11,1.09,1.09,0,0,1-.74-.22A1,1,0,0,1,56.28,64.62Z" transform="translate(-3.21 -3.91)"/><path class="cls-6" d="M58.87,66.45V62.72h.38v.35a1.14,1.14,0,0,1,.31-.31.93.93,0,0,1,.42-.1.91.91,0,0,1,.56.18,1,1,0,0,1,.37.5,1.83,1.83,0,0,1,.13.71,2,2,0,0,1-.14.75,1.08,1.08,0,0,1-.4.51,1,1,0,0,1-.55.17.79.79,0,0,1-.38-.09.85.85,0,0,1-.28-.25v1.31Zm.38-2.36a1.2,1.2,0,0,0,.2.77.57.57,0,0,0,.95,0,1.61,1.61,0,0,0,0-1.57.59.59,0,0,0-.47-.26.6.6,0,0,0-.48.27A1.31,1.31,0,0,0,59.25,64.09Z" transform="translate(-3.21 -3.91)"/><path class="cls-6" d="M63.27,64.55l.43.06a1.12,1.12,0,0,1-.38.64,1.07,1.07,0,0,1-.72.23,1.12,1.12,0,0,1-.87-.36,1.83,1.83,0,0,1,0-2.08,1,1,0,0,1,.84-.38,1,1,0,0,1,.82.37,1.56,1.56,0,0,1,.32,1,.68.68,0,0,1,0,.12H61.85a1,1,0,0,0,.23.68.68.68,0,0,0,.53.24A.6.6,0,0,0,63,65,.85.85,0,0,0,63.27,64.55Zm-1.4-.74h1.4a1,1,0,0,0-.16-.51.65.65,0,0,0-.53-.26.67.67,0,0,0-.49.21A.91.91,0,0,0,61.87,63.81Z" transform="translate(-3.21 -3.91)"/><path class="cls-6" d="M65.87,64.43l.42.06a1.23,1.23,0,0,1-.35.73,1,1,0,0,1-.69.26,1,1,0,0,1-.83-.36,1.54,1.54,0,0,1-.31-1,2,2,0,0,1,.13-.76,1,1,0,0,1,.41-.49,1.13,1.13,0,0,1,.6-.17.94.94,0,0,1,1,.86l-.41.06a.8.8,0,0,0-.21-.41.52.52,0,0,0-.36-.13.64.64,0,0,0-.53.25,1.24,1.24,0,0,0-.2.78,1.27,1.27,0,0,0,.2.79.6.6,0,0,0,.5.25.57.57,0,0,0,.42-.17A.86.86,0,0,0,65.87,64.43Z" transform="translate(-3.21 -3.91)"/><path class="cls-6" d="M66.65,62.22V61.7h.43v.52Zm0,3.2v-2.7h.43v2.7Z" transform="translate(-3.21 -3.91)"/><path class="cls-6" d="M69.36,65.09a1.64,1.64,0,0,1-.46.3,1.18,1.18,0,0,1-.46.09.86.86,0,0,1-.64-.22.72.72,0,0,1-.22-.55.86.86,0,0,1,.08-.36.84.84,0,0,1,.22-.27,1.28,1.28,0,0,1,.31-.15l.37-.06a4,4,0,0,0,.76-.16v-.12a.5.5,0,0,0-.12-.39.63.63,0,0,0-.48-.16.73.73,0,0,0-.44.11.66.66,0,0,0-.21.4l-.42-.06a1.14,1.14,0,0,1,.19-.46.8.8,0,0,1,.37-.27,1.48,1.48,0,0,1,.57-.1,1.45,1.45,0,0,1,.52.08.79.79,0,0,1,.3.21.81.81,0,0,1,.13.31,3.59,3.59,0,0,1,0,.42v.61a6.29,6.29,0,0,0,0,.81.94.94,0,0,0,.11.32h-.45A1,1,0,0,1,69.36,65.09Zm0-1a3.43,3.43,0,0,1-.69.17,1.78,1.78,0,0,0-.37.09.41.41,0,0,0-.17.15.43.43,0,0,0-.06.22.38.38,0,0,0,.13.3.54.54,0,0,0,.38.12A.86.86,0,0,0,69,65a.67.67,0,0,0,.28-.32,1.08,1.08,0,0,0,.07-.46Z" transform="translate(-3.21 -3.91)"/><path class="cls-6" d="M70.4,65.42V61.7h.42v3.72Z" transform="translate(-3.21 -3.91)"/><path class="cls-6" d="M71.48,62.22V61.7h.43v.52Zm0,3.2v-2.7h.43v2.7Z" transform="translate(-3.21 -3.91)"/><path class="cls-6" d="M74.18,65.42v-.34a.76.76,0,0,1-.7.4.93.93,0,0,1-.55-.18,1.07,1.07,0,0,1-.39-.49,2.07,2.07,0,0,1,0-1.47,1,1,0,0,1,.37-.5.94.94,0,0,1,.56-.18.88.88,0,0,1,.4.1.84.84,0,0,1,.29.27V61.7h.42v3.72Zm-1.34-1.35a1.21,1.21,0,0,0,.2.78.59.59,0,0,0,.48.26.6.6,0,0,0,.47-.25,1.18,1.18,0,0,0,.2-.75,1.34,1.34,0,0,0-.2-.81A.61.61,0,0,0,73.5,63a.55.55,0,0,0-.47.25A1.28,1.28,0,0,0,72.84,64.07Z" transform="translate(-3.21 -3.91)"/><path class="cls-6" d="M76.87,65.09a1.47,1.47,0,0,1-.45.3,1.23,1.23,0,0,1-.47.09.85.85,0,0,1-.63-.22.72.72,0,0,1-.22-.55.78.78,0,0,1,.3-.63,1.4,1.4,0,0,1,.3-.15l.38-.06a4.18,4.18,0,0,0,.76-.16v-.12a.5.5,0,0,0-.12-.39.65.65,0,0,0-.48-.16.56.56,0,0,0-.66.51l-.41-.06a1.14,1.14,0,0,1,.19-.46.75.75,0,0,1,.37-.27,1.42,1.42,0,0,1,.57-.1,1.49,1.49,0,0,1,.52.08.75.75,0,0,1,.29.21.68.68,0,0,1,.14.31,3.59,3.59,0,0,1,0,.42v.61a7.17,7.17,0,0,0,0,.81,1.21,1.21,0,0,0,.11.32H77A1,1,0,0,1,76.87,65.09Zm0-1a3.83,3.83,0,0,1-.69.17,2.13,2.13,0,0,0-.38.09.39.39,0,0,0-.16.15.43.43,0,0,0-.06.22.38.38,0,0,0,.13.3.51.51,0,0,0,.37.12.9.9,0,0,0,.44-.11.67.67,0,0,0,.28-.32,1.08,1.08,0,0,0,.07-.46Z" transform="translate(-3.21 -3.91)"/><path class="cls-6" d="M79.55,65.42v-.34a.76.76,0,0,1-.7.4.93.93,0,0,1-.55-.18,1.07,1.07,0,0,1-.39-.49,2.07,2.07,0,0,1,0-1.47,1,1,0,0,1,.37-.5.94.94,0,0,1,.56-.18.88.88,0,0,1,.4.1.84.84,0,0,1,.29.27V61.7h.42v3.72Zm-1.34-1.35a1.21,1.21,0,0,0,.2.78.57.57,0,0,0,1,0,1.18,1.18,0,0,0,.2-.75,1.34,1.34,0,0,0-.2-.81.61.61,0,0,0-.49-.26.55.55,0,0,0-.47.25A1.28,1.28,0,0,0,78.21,64.07Z" transform="translate(-3.21 -3.91)"/><path class="cls-6" d="M82.32,64.55l.44.06a1.12,1.12,0,0,1-.38.64,1.07,1.07,0,0,1-.72.23,1.11,1.11,0,0,1-.87-.36,1.55,1.55,0,0,1-.32-1A1.59,1.59,0,0,1,80.79,63a1.08,1.08,0,0,1,.85-.38,1,1,0,0,1,.82.37,1.56,1.56,0,0,1,.32,1,.68.68,0,0,1,0,.12H80.91a1,1,0,0,0,.23.68.66.66,0,0,0,.52.24.61.61,0,0,0,.4-.14A.78.78,0,0,0,82.32,64.55Zm-1.39-.74h1.4a1,1,0,0,0-.16-.51.67.67,0,0,0-1,0A.86.86,0,0,0,80.93,63.81Z" transform="translate(-3.21 -3.91)"/><path class="cls-6" d="M83.13,64.62l.41-.08a.67.67,0,0,0,.2.42.64.64,0,0,0,.45.15.68.68,0,0,0,.44-.13.42.42,0,0,0,.14-.3.28.28,0,0,0-.13-.25,1.58,1.58,0,0,0-.43-.15,4.63,4.63,0,0,1-.65-.22.62.62,0,0,1-.27-.26.74.74,0,0,1-.09-.36.72.72,0,0,1,.07-.33.67.67,0,0,1,.21-.26.85.85,0,0,1,.27-.13,1.15,1.15,0,0,1,.37-.06,1.42,1.42,0,0,1,.52.09A.75.75,0,0,1,85,63a1.09,1.09,0,0,1,.15.42l-.41.06a.53.53,0,0,0-.17-.33.61.61,0,0,0-.38-.11.67.67,0,0,0-.42.1.32.32,0,0,0-.12.25.24.24,0,0,0,0,.16.42.42,0,0,0,.16.12l.38.11a3.91,3.91,0,0,1,.62.22.55.55,0,0,1,.28.24.67.67,0,0,1,.11.39.86.86,0,0,1-.13.43.79.79,0,0,1-.36.31,1.34,1.34,0,0,1-1.27-.11A1,1,0,0,1,83.13,64.62Z" transform="translate(-3.21 -3.91)"/></svg>