<?xml version="1.0"?>
<svg xmlns="http://www.w3.org/2000/svg" height="512px" viewBox="-26 0 512 512.09154" width="512px"><g><path d="m422.65625 36.351562c-49.324219-47.351562-137.191406-48.324218-192.128906-3.59375-54.886719-44.730468-142.753906-43.757812-192.074219 3.582032-50.273437 48.164062-44.121094 126.738281-21.582031 184.21875 6.699218 15.820312 14.742187 31.035156 24.039062 45.484375 4.742188 7.824219 9.640625 15.921875 14 24.105469 12.929688 22.917968 21.355469 48.097656 24.824219 74.179687 2.621094 29.664063 7.609375 59.074219 14.917969 87.945313 5.632812 20.90625 16.109375 59.816406 49.542968 59.816406 26.222657 0 46.492188-50.082032 60.246094-148.820313 4.683594-33.074219 19.105469-35.992187 26.113282-36.820312 6.996093.851562 21.425781 3.746093 26.101562 36.804687 13.765625 98.765625 34.039062 148.835938 60.253906 148.835938 33.425782 0 43.914063-38.917969 49.496094-59.730469 7.324219-28.894531 12.316406-58.328125 14.929688-88.023437 3.476562-26.078126 11.902343-51.253907 24.824218-74.171876 4.363282-8.175781 9.257813-16.261718 13.996094-24.089843 9.304688-14.453125 17.355469-29.675781 24.054688-45.507813 22.5625-57.488281 28.722656-136.0625-21.554688-184.214844zm-372.394531 12.304688c44.117187-42.351562 127.292969-41.667969 174.507812 1.40625 3.328125 3.242188 54.570313 52.429688 99.625 52.429688 4.714844 0 8.535157-3.820313 8.535157-8.535157 0-4.710937-3.820313-8.53125-8.535157-8.53125-29.960937 0-65.902343-28.332031-80.820312-41.320312 48.085937-37.007813 125.289062-35.726563 167.253906 4.558593 30.492187 29.207032 36.992187 72.046876 31.371094 112.996094-35.359375 4.066406-68.042969 20.816406-91.992188 47.148438l-3.695312 3.824218c-8.335938 8.703126-15.539063 16.210938-26.109375 17.066407-10.101563.269531-19.941406-3.226563-27.605469-9.816407-1.519531-1.234374-3.011719-2.507812-4.507813-3.769531-8.957031-9.515625-21.171874-15.304687-34.207031-16.214843h-.472656c-27.09375.367187-46.933594 25.183593-61.335937 43.300781l-3.832032 4.777343c-2.945312 3.675782-5.734375 7.492188-8.53125 11.316407-2.800781 3.820312-5.503906 7.566406-8.382812 11.09375-6.699219 8.078125-10.714844 7.074219-12.507813 6.621093-5.316406-1.28125-7.636719-7.570312-10.589843-17.066406-.855469-2.6875-1.707032-5.300781-2.5625-7.679687-5.136719-16.660157-14.308594-31.792969-26.699219-44.058594-16.410157-14.203125-40.429688-15.261719-58.027344-2.5625-8.835937 6.59375-15.976563 15.199219-20.828125 25.097656-2.820312-5.335937-5.359375-10.816406-7.605469-16.417969-20.460937-52.324218-26.605469-123.332031 17.554688-165.664062zm355.320312 208.5625c-4.855469 8.019531-9.875 16.304688-14.457031 24.898438-13.945312 24.808593-23.011719 52.058593-26.71875 80.273437-2.53125 28.820313-7.351562 57.390625-14.410156 85.445313-6.179688 22.835937-14.3125 47.1875-33.085938 47.1875-8.53125 0-28.558594-28.03125-43.347656-134.140626-4.464844-31.574218-18.585938-48.882812-41.976562-51.484374-.34375.003906-.683594.03125-1.023438.085937-.34375-.058594-.691406-.085937-1.042969-.085937-23.386719 2.5625-37.546875 19.925781-41.980469 51.5-13.707031 98.40625-33.433593 134.125-43.34375 134.125-18.773437 0-26.914062-24.351563-33.082031-47.246094-7.023437-28.042969-11.84375-56.585938-14.421875-85.378906-3.699218-28.21875-12.765625-55.472657-26.71875-80.28125-4.582031-8.601563-9.597656-16.894532-14.507812-24.917969-1.550782-2.558594-3.0625-5.117188-4.570313-7.617188 3.449219-11.882812 10.515625-22.398437 20.214844-30.082031 11.214844-8.050781 26.496094-7.34375 36.921875 1.707031 10.1875 10.507813 17.703125 23.308594 21.914062 37.324219.785157 1.996094 1.46875 4.214844 2.183594 6.511719 3.269532 10.511719 7.757813 24.910156 22.792969 28.527343 2.054687.523438 4.164063.792969 6.28125.800782 9.441406-.558594 18.105469-5.414063 23.507813-13.175782 3.117187-3.839843 6.050781-7.859374 8.988281-11.886718 2.628906-3.601563 5.246093-7.210938 8.003906-10.640625l3.890625-4.855469c13.003906-16.316406 29.199219-36.617188 48.203125-36.871094 8.6875-.214844 15.363281 5.308594 23.425781 12.167969 1.585938 1.347656 3.183594 2.703125 4.871094 4.070313 11.042969 9.324218 25.183594 14.152343 39.621094 13.523437 17.066406-1.296875 27.742187-12.421875 37.136718-22.234375l3.542969-3.671875c20.238281-22 47.1875-36.679687 76.644531-41.753906-2.644531 12.003906-6.21875 23.785156-10.691406 35.234375-6.339844 14.941406-13.957031 29.308594-22.765625 42.941406zm0 0" data-original="#000000" class="active-path" data-old_color="#000000" fill="#259B9D"/><path d="m49.210938 178.582031c2.664062.003907 5.171874-1.234375 6.789062-3.347656s2.15625-4.859375 1.453125-7.429687c-19.054687-69.851563 25.449219-92.882813 27.496094-93.898438 4.101562-2.128906 5.769531-7.132812 3.757812-11.292969-2.011719-4.160156-6.96875-5.960937-11.179687-4.070312-.597656.285156-59.480469 29.648437-36.542969 113.75 1.011719 3.710937 4.382813 6.289062 8.226563 6.289062zm0 0" data-original="#000000" class="active-path" data-old_color="#000000" fill="#259B9D"/><path d="m119.621094 51.292969c0 4.710937-3.820313 8.53125-8.535156 8.53125-4.710938 0-8.53125-3.820313-8.53125-8.53125 0-4.714844 3.820312-8.535157 8.53125-8.535157 4.714843 0 8.535156 3.820313 8.535156 8.535157zm0 0" data-original="#000000" class="active-path" data-old_color="#000000" fill="#259B9D"/><path d="m93.996094 247.558594c0 4.710937-3.820313 8.53125-8.535156 8.53125-4.710938 0-8.53125-3.820313-8.53125-8.53125 0-4.714844 3.820312-8.535156 8.53125-8.535156 4.714843 0 8.535156 3.820312 8.535156 8.535156zm0 0" data-original="#000000" class="active-path" data-old_color="#000000" fill="#259B9D"/><path d="m119.59375 281.691406c0 4.714844-3.820312 8.535156-8.53125 8.535156-4.714844 0-8.535156-3.820312-8.535156-8.535156 0-4.710937 3.820312-8.53125 8.535156-8.53125 4.710938 0 8.53125 3.820313 8.53125 8.53125zm0 0" data-original="#000000" class="active-path" data-old_color="#000000" fill="#259B9D"/><path d="m128.128906 324.359375c0 4.710937-3.820312 8.53125-8.535156 8.53125-4.710938 0-8.53125-3.820313-8.53125-8.53125 0-4.714844 3.820312-8.535156 8.53125-8.535156 4.714844 0 8.535156 3.820312 8.535156 8.535156zm0 0" data-original="#000000" class="active-path" data-old_color="#000000" fill="#259B9D"/><path d="m179.328125 324.359375c0 4.710937-3.820313 8.53125-8.535156 8.53125-4.710938 0-8.53125-3.820313-8.53125-8.53125 0-4.714844 3.820312-8.535156 8.53125-8.535156 4.714843 0 8.535156 3.820312 8.535156 8.535156zm0 0" data-original="#000000" class="active-path" data-old_color="#000000" fill="#259B9D"/><path d="m213.460938 290.226562c0 4.710938-3.820313 8.53125-8.53125 8.53125-4.714844 0-8.535157-3.820312-8.535157-8.53125 0-4.714843 3.820313-8.535156 8.535157-8.535156 4.710937 0 8.53125 3.820313 8.53125 8.535156zm0 0" data-original="#000000" class="active-path" data-old_color="#000000" fill="#259B9D"/><path d="m239.0625 256.089844c0 4.714844-3.820312 8.535156-8.535156 8.535156-4.710938 0-8.53125-3.820312-8.53125-8.535156 0-4.710938 3.820312-8.53125 8.53125-8.53125 4.714844 0 8.535156 3.820312 8.535156 8.53125zm0 0" data-original="#000000" class="active-path" data-old_color="#000000" fill="#259B9D"/><path d="m264.660156 290.226562c0 4.710938-3.820312 8.53125-8.53125 8.53125-4.714844 0-8.535156-3.820312-8.535156-8.53125 0-4.714843 3.820312-8.535156 8.535156-8.535156 4.710938 0 8.53125 3.820313 8.53125 8.535156zm0 0" data-original="#000000" class="active-path" data-old_color="#000000" fill="#259B9D"/><path d="m290.261719 256.089844c0 4.714844-3.820313 8.535156-8.535157 8.535156-4.710937 0-8.53125-3.820312-8.53125-8.535156 0-4.710938 3.820313-8.53125 8.53125-8.53125 4.714844 0 8.535157 3.820312 8.535157 8.53125zm0 0" data-original="#000000" class="active-path" data-old_color="#000000" fill="#259B9D"/><path d="m315.863281 290.226562c0 4.710938-3.824219 8.53125-8.535156 8.53125s-8.535156-3.820312-8.535156-8.53125c0-4.714843 3.824219-8.535156 8.535156-8.535156s8.535156 3.820313 8.535156 8.535156zm0 0" data-original="#000000" class="active-path" data-old_color="#000000" fill="#259B9D"/><path d="m358.527344 256.089844c0 4.714844-3.820313 8.535156-8.53125 8.535156-4.714844 0-8.535156-3.820312-8.535156-8.535156 0-4.710938 3.820312-8.53125 8.535156-8.53125 4.710937 0 8.53125 3.820312 8.53125 8.53125zm0 0" data-original="#000000" class="active-path" data-old_color="#000000" fill="#259B9D"/><path d="m367.0625 290.226562c0 4.710938-3.820312 8.53125-8.535156 8.53125-4.710938 0-8.53125-3.820312-8.53125-8.53125 0-4.714843 3.820312-8.535156 8.53125-8.535156 4.714844 0 8.535156 3.820313 8.535156 8.535156zm0 0" data-original="#000000" class="active-path" data-old_color="#000000" fill="#259B9D"/><path d="m401.195312 230.492188c0 4.710937-3.820312 8.53125-8.535156 8.53125-4.710937 0-8.53125-3.820313-8.53125-8.53125 0-4.714844 3.820313-8.535157 8.53125-8.535157 4.714844 0 8.535156 3.820313 8.535156 8.535157zm0 0" data-original="#000000" class="active-path" data-old_color="#000000" fill="#259B9D"/><path d="m349.996094 324.359375c0 4.710937-3.820313 8.53125-8.535156 8.53125-4.710938 0-8.53125-3.820313-8.53125-8.53125 0-4.714844 3.820312-8.535156 8.53125-8.535156 4.714843 0 8.535156 3.820312 8.535156 8.535156zm0 0" data-original="#000000" class="active-path" data-old_color="#000000" fill="#259B9D"/><path d="m298.792969 324.359375c0 4.710937-3.820313 8.53125-8.53125 8.53125-4.714844 0-8.535157-3.820313-8.535157-8.53125 0-4.714844 3.820313-8.535156 8.535157-8.535156 4.710937 0 8.53125 3.820312 8.53125 8.535156zm0 0" data-original="#000000" class="active-path" data-old_color="#000000" fill="#259B9D"/><path d="m324.394531 358.492188c0 4.710937-3.820312 8.53125-8.53125 8.53125-4.714843 0-8.535156-3.820313-8.535156-8.53125 0-4.714844 3.820313-8.535157 8.535156-8.535157 4.710938 0 8.53125 3.820313 8.53125 8.535157zm0 0" data-original="#000000" class="active-path" data-old_color="#000000" fill="#259B9D"/><path d="m341.460938 392.625c0 4.710938-3.820313 8.535156-8.53125 8.535156-4.714844 0-8.535157-3.824218-8.535157-8.535156 0-4.714844 3.820313-8.535156 8.535157-8.535156 4.710937 0 8.53125 3.820312 8.53125 8.535156zm0 0" data-original="#000000" class="active-path" data-old_color="#000000" fill="#259B9D"/><path d="m307.328125 392.625c0 4.710938-3.820313 8.535156-8.535156 8.535156-4.710938 0-8.53125-3.824218-8.53125-8.535156 0-4.714844 3.820312-8.535156 8.53125-8.535156 4.714843 0 8.535156 3.820312 8.535156 8.535156zm0 0" data-original="#000000" class="active-path" data-old_color="#000000" fill="#259B9D"/><path d="m153.726562 358.492188c0 4.710937-3.820312 8.53125-8.53125 8.53125-4.714843 0-8.535156-3.820313-8.535156-8.53125 0-4.714844 3.820313-8.535157 8.535156-8.535157 4.710938 0 8.53125 3.820313 8.53125 8.535157zm0 0" data-original="#000000" class="active-path" data-old_color="#000000" fill="#259B9D"/><path d="m136.660156 392.625c0 4.710938-3.820312 8.535156-8.53125 8.535156-4.714844 0-8.535156-3.824218-8.535156-8.535156 0-4.714844 3.820312-8.535156 8.535156-8.535156 4.710938 0 8.53125 3.820312 8.53125 8.535156zm0 0" data-original="#000000" class="active-path" data-old_color="#000000" fill="#259B9D"/><path d="m153.726562 435.292969c0 4.710937-3.820312 8.53125-8.53125 8.53125-4.714843 0-8.535156-3.820313-8.535156-8.53125 0-4.714844 3.820313-8.535157 8.535156-8.535157 4.710938 0 8.53125 3.820313 8.53125 8.535157zm0 0" data-original="#000000" class="active-path" data-old_color="#000000" fill="#259B9D"/><path d="m324.394531 435.292969c0 4.710937-3.820312 8.53125-8.53125 8.53125-4.714843 0-8.535156-3.820313-8.535156-8.53125 0-4.714844 3.820313-8.535157 8.535156-8.535157 4.710938 0 8.53125 3.820313 8.53125 8.535157zm0 0" data-original="#000000" class="active-path" data-old_color="#000000" fill="#259B9D"/><path d="m170.792969 392.625c0 4.710938-3.820313 8.535156-8.53125 8.535156-4.714844 0-8.535157-3.824218-8.535157-8.535156 0-4.714844 3.820313-8.535156 8.535157-8.535156 4.710937 0 8.53125 3.820312 8.53125 8.535156zm0 0" data-original="#000000" class="active-path" data-old_color="#000000" fill="#259B9D"/></g> </svg>
