<svg id="dental-care" xmlns="http://www.w3.org/2000/svg" width="108.988" height="98.249" viewBox="0 0 108.988 98.249">
  <g id="Group_3" data-name="Group 3" transform="translate(0 22.928)">
    <g id="Group_2" data-name="Group 2">
      <path id="Path_1" data-name="Path 1" d="M107.669,148.1l-17.62-4.539a12.73,12.73,0,0,0-7.767.455,54.963,54.963,0,0,0,3.092-18.14c-.017-7.28-6.264-13.314-14.319-13.832l-.249,3.275c6.148.4,10.917,5,10.935,10.557a52.2,52.2,0,0,1-4.051,20.141L76.406,149.1a1.489,1.489,0,0,0-.111.491l-1.5,24.341a3.827,3.827,0,0,1-2.5,3.241l-1.426-33.418.016-.041a46.238,46.238,0,0,0,3.589-17.839,4.283,4.283,0,0,0-4.481-4.04v3.275a.81.81,0,0,1,.848.765,43.074,43.074,0,0,1-2.483,14.41,20.66,20.66,0,0,0-27.078-.588q-.334.287-.652.588a43.085,43.085,0,0,1-2.483-14.41.836.836,0,0,1,.9-.756.953.953,0,0,1,.287.053,41.916,41.916,0,0,0,15.164,2.805,43.053,43.053,0,0,0,5.715-.38l-.534-3.239a38.577,38.577,0,0,1-18.917-2.2,4.676,4.676,0,0,0-5.883,2.124,3.7,3.7,0,0,0-.362,1.589A46.238,46.238,0,0,0,38.1,143.716l.016.041-1.426,33.418a3.826,3.826,0,0,1-2.5-3.25l-1.5-24.341a1.489,1.489,0,0,0-.111-.491L31.3,146.008a52.2,52.2,0,0,1-4.054-20.131c0-5.849,5.262-10.59,11.751-10.59a12.865,12.865,0,0,1,4.627.856,30.212,30.212,0,0,0,16.608,1.474l-.756-3.2a26.267,26.267,0,0,1-14.423-1.274c-7.807-3.017-16.849.243-20.2,7.28a12.7,12.7,0,0,0-1.244,5.456,54.954,54.954,0,0,0,3.088,18.14,12.73,12.73,0,0,0-7.767-.455L1.315,148.1A1.672,1.672,0,0,0,0,149.675V185.7a1.734,1.734,0,0,0,1.816,1.637H107.171a1.734,1.734,0,0,0,1.816-1.637V149.675A1.672,1.672,0,0,0,107.669,148.1ZM36.4,184.062H3.633V150.909l16.3-4.2a8.328,8.328,0,0,1,9.155,3.455l1.477,23.94a7.3,7.3,0,0,0,5.98,6.458Zm5.326-39.757a15.822,15.822,0,0,1,12.77-6.093,15.822,15.822,0,0,1,12.764,6.093l1.4,32.764a3.853,3.853,0,0,1-2.238-2.794l-3.869-23.262c-.67-4.011-4.82-6.773-9.269-6.169a7.783,7.783,0,0,0-6.843,6.169l-3.869,23.262a3.856,3.856,0,0,1-2.249,2.794Zm-1.691,39.757.149-3.485a7.46,7.46,0,0,0,5.98-5.815L50.033,151.5a4.464,4.464,0,0,1,5.124-3.424,4.309,4.309,0,0,1,3.8,3.424l3.871,23.252a7.46,7.46,0,0,0,5.98,5.816l.149,3.493Zm65.322,0H72.59l-.149-3.5a7.3,7.3,0,0,0,5.98-6.458l1.477-23.94a8.326,8.326,0,0,1,9.155-3.455l16.3,4.2Z" transform="translate(0 -112.016)" fill="#259b9d"/>
    </g>
  </g>
  <g id="Group_5" data-name="Group 5" transform="translate(56.31)">
    <g id="Group_4" data-name="Group 4">
      <path id="Path_2" data-name="Path 2" d="M298.861,4.912h-32.7V1.637A1.734,1.734,0,0,0,264.348,0H249.816A1.734,1.734,0,0,0,248,1.637V18.012a1.734,1.734,0,0,0,1.816,1.637h5.449V44.212H258.9V19.65h5.449a1.734,1.734,0,0,0,1.816-1.637V14.737h32.7a1.734,1.734,0,0,0,1.816-1.637V6.55A1.734,1.734,0,0,0,298.861,4.912ZM262.532,16.375h-10.9V3.275h10.9Zm34.513-4.912h-30.88V8.187h30.88Z" transform="translate(-248)" fill="#259b9d"/>
    </g>
  </g>
</svg>
